<?xml version="1.0" encoding="UTF-8"?>
<svg version="1.1" xmlns="http://www.w3.org/2000/svg" width="392" height="416">
<path d="M0 0 C129.36 0 258.72 0 392 0 C392 137.28 392 274.56 392 416 C262.64 416 133.28 416 0 416 C0 278.72 0 141.44 0 0 Z " fill="#FDFDFD" transform="translate(0,0)"/>
<path d="M0 0 C129.36 0 258.72 0 392 0 C392 137.28 392 274.56 392 416 C262.64 416 133.28 416 0 416 C0 278.72 0 141.44 0 0 Z M180 29 C176.9847861 38.04564169 175.2825849 46.03239674 179 55 C181.28836395 58.90611974 183.58629955 62.15177973 187.5 64.5 C191.18359834 65.23671967 194.56992331 65.71503834 198 64 C205.94117647 63.70588235 205.94117647 63.70588235 209 65 C210.34823473 69.04470419 210.55930653 72.77072326 210 77 C207.8141602 80.04456257 205.41889073 81.53476111 202 83 C202 83.66 202 84.32 202 85 C187.60356752 84.52557211 178.3765765 83.95305297 168 73 C159.69934205 63.29183918 158.81255654 52.9035038 158.9296875 40.57421875 C158.93476318 39.55565796 158.93983887 38.53709717 158.94506836 37.4876709 C158.9582397 34.99170217 158.97668825 32.49589117 159 30 C152.61369689 29.97450774 146.22740705 29.95707367 139.84106445 29.94506836 C137.67146311 29.94005997 135.50186511 29.93325137 133.33227539 29.92456055 C130.20197726 29.91234124 127.071724 29.9067366 123.94140625 29.90234375 C122.98166397 29.89718246 122.02192169 29.89202118 121.03309631 29.88670349 C115.27346345 29.88623077 109.71317716 30.26058746 104 31 C100.79467953 37.70553043 100.78295633 46.42917121 102.6875 53.58203125 C104.78942853 58.16248384 107.69534066 61.31974041 112 64 C115.73950514 64.90176937 119.47044084 65.76477958 123 64 C127.33327174 63.50944093 129.32000344 63.52255561 132.9375 66.0625 C135.53327109 69.7595073 135.71253588 71.56644342 135 76 C132.91038352 79.677725 130.38418935 81.99347574 126.375 83.48828125 C117.68858793 85.35986017 108.86113333 85.13287748 101.140625 80.53125 C93.49484487 75.06200582 89.6694867 68.62272572 86 60 C85.61714844 59.11183594 85.23429687 58.22367188 84.83984375 57.30859375 C83.63561052 52.56447495 83.78918587 47.99660202 83.875 43.125 C83.88402344 42.15046875 83.89304687 41.1759375 83.90234375 40.171875 C83.92578377 37.78099272 83.95859558 35.39062739 84 33 C67.20808668 34.47583188 55.07380345 40.02403937 43 52 C42.21496094 52.72703125 41.42992188 53.4540625 40.62109375 54.203125 C27.9387051 66.82113604 25.07921867 84.50392335 23.79534912 101.60739136 C23.49678263 105.58177022 23.17769913 109.55450611 22.859375 113.52734375 C22.79245453 114.36739456 22.72553406 115.20744537 22.65658569 116.07295227 C22.14201231 122.45110397 21.56206437 128.82161886 20.953125 135.19140625 C20.86376678 136.12915894 20.77440857 137.06691162 20.68234253 138.03308105 C20.33001329 141.71961023 19.97660119 145.40599764 19.61358643 149.0914917 C19.48702667 150.37724091 19.48702667 150.37724091 19.35791016 151.68896484 C19.28416168 152.43181732 19.21041321 153.1746698 19.13442993 153.94003296 C17.3903621 172.66072996 16.84477105 191.32543784 16.8671875 210.12109375 C16.86651102 212.16504427 16.86553815 214.2089947 16.86428833 216.25294495 C16.86282987 220.49407737 16.86490696 224.73518846 16.86962891 228.97631836 C16.87535081 234.37422331 16.87201983 239.77207878 16.86605644 245.16998196 C16.86242221 249.37476466 16.86360207 253.57953585 16.86618423 257.78431892 C16.86684427 259.773957 16.86605796 261.76359617 16.86370468 263.75323296 C16.30161374 283.17535771 16.30161374 283.17535771 20 302 C20.40910683 304.28592665 20.7650448 306.58176712 21.078125 308.8828125 C21.26705888 310.21888129 21.45695613 311.55481413 21.64770508 312.890625 C21.74532135 313.58220703 21.84293762 314.27378906 21.94351196 314.98632812 C24.95401329 335.9935902 28.90785559 363.23689504 46 378 C48.55893061 379.90756645 51.18886495 381.4938406 54 383 C54.61488281 383.34675781 55.22976562 383.69351562 55.86328125 384.05078125 C83.8219592 399.0431158 119.34091981 398.50423056 150.17903137 398.26630402 C153.33337547 398.24414582 156.48772625 398.23294638 159.64212418 398.22139931 C190.9380259 398.10388154 222.17345526 397.42217687 253.4375 396 C254.35704468 395.95820618 255.27658936 395.91641235 256.22399902 395.87335205 C268.50039725 395.30884676 268.50039725 395.30884676 280.73754883 394.20996094 C284.35296671 393.87444142 287.97217071 393.80764257 291.60058594 393.71020508 C311.43973584 393.15128812 328.41056462 391.20142223 343.3984375 376.83984375 C347.884064 371.94337158 351.45488827 366.59864024 355 361 C355.56589844 360.15566406 356.13179688 359.31132812 356.71484375 358.44140625 C365.57513159 344.71134189 367.38648706 330.17197985 368.79619122 314.24060535 C368.93712514 312.69122512 369.0847533 311.14244453 369.23776722 309.59421062 C371.21535778 289.39727359 371.29782968 269.2983744 371.26865101 249.02713251 C371.26350063 244.31364894 371.26830596 239.6001722 371.27142334 234.88668823 C371.27503217 226.99491956 371.27034065 219.10318868 371.26074219 211.21142578 C371.2498105 202.1190876 371.25342968 193.02683883 371.264395 183.93450272 C371.27349334 176.07142792 371.2747423 168.20837988 371.26951766 160.34530151 C371.26641872 155.67277362 371.26593204 151.00028771 371.27259064 146.3277626 C371.27840272 141.94603684 371.2742972 137.56442601 371.26280212 133.18271255 C371.26017837 131.58485097 371.26088108 129.98697956 371.26532745 128.38912201 C371.288014 119.40286144 370.79090392 110.84080446 369 102 C368.72730747 100.39614833 368.45618054 98.79202864 368.1875 97.1875 C364.19250361 78.06641043 355.93517983 57.37848045 339.23803711 46.24145508 C320.07365263 33.98952351 301.49618239 30.13226565 279 30 C277.9063916 29.99162109 276.8127832 29.98324219 275.68603516 29.97460938 C268.79018544 29.93124545 261.89570867 29.94097695 255 30 C251.58798088 36.8790708 251.98303118 45.52658299 253 53 C254.8151184 58.08362342 257.61738859 61.62770246 262.4375 64.125 C266.45171016 65.11094635 268.96499282 64.7786856 273 64 C277.36248151 63.68839418 281.2790192 63.42885018 285 66 C286.4153709 69.93674202 286.35660363 73.85377403 285.125 77.8125 C280.0912738 82.99427697 274.26654612 84.28827546 267.1875 84.625 C258.48610418 84.38906194 251.12489374 81.16190216 245 75 C244.34 75 243.68 75 243 75 C242.9071875 74.48308594 242.814375 73.96617188 242.71875 73.43359375 C241.54285704 69.45217358 239.45933958 65.87908077 237.52734375 62.22070312 C234.50141386 56.35242487 233.86044332 51.80050749 233.875 45.25 C233.87242187 44.10015625 233.86984375 42.9503125 233.8671875 41.765625 C234.01776359 37.49634992 234.52824429 33.24580139 235 29 C216.85 29 198.7 29 180 29 Z " fill="#F9C3E1" transform="translate(0,0)"/>
<path d="M0 0 C1.63217952 -0.00514648 3.26435347 -0.01243324 4.89651489 -0.02168274 C9.30362292 -0.04011086 13.7101217 -0.02731349 18.11720395 -0.00759244 C22.74276953 0.00886395 27.36829863 -0.00002839 31.99388123 -0.00511169 C39.7585517 -0.00962441 47.52298062 0.00618723 55.28759766 0.03417969 C64.24911737 0.06623916 73.21020186 0.06620878 82.17175251 0.04896492 C90.81408525 0.03307175 99.45625928 0.03985059 108.09858513 0.05690193 C111.76705111 0.06375276 115.43538913 0.06276031 119.10385323 0.05535698 C123.42723208 0.04766534 127.75011876 0.05991354 132.07341385 0.08720589 C133.65477094 0.09406031 135.23617426 0.09421944 136.81752968 0.08699036 C146.28008901 0.04873446 154.40219634 0.29463311 161.98217773 6.52563477 C166.90561053 12.53908128 170.27137803 17.51463695 169.67749023 25.63110352 C170.69198242 25.7690332 171.70647461 25.90696289 172.75170898 26.04907227 C193.68615319 29.15278588 216.76428434 37.7541611 229.99975586 55.39331055 C232.58680767 59.30458568 234.6704814 63.39804681 236.67749023 67.63110352 C237.08225586 68.44450195 237.48702148 69.25790039 237.90405273 70.09594727 C240.72877036 76.05804209 242.75018739 82.33153099 244.67749023 88.63110352 C244.96881836 89.57856445 245.26014648 90.52602539 245.56030273 91.50219727 C250.36720842 108.69971906 248.88010357 127.53781842 248.98081326 145.23480868 C249.00306165 148.98428374 249.0302874 152.73372318 249.05686951 156.48316956 C249.10091723 162.79296217 249.14170417 169.10276868 249.18017578 175.41259766 C249.22889625 183.40166556 249.28263191 191.39069079 249.33815098 199.37971401 C249.38668045 206.36459836 249.43315415 213.3494962 249.47916293 220.33439755 C249.48887271 221.8042204 249.49864773 223.27404282 249.50849271 224.74386477 C249.57276394 234.33949194 249.62916006 243.93511315 249.66880369 253.53087616 C249.67472888 254.96346366 249.68085921 256.39605031 249.6871686 257.82863617 C249.70661465 262.31143006 249.72130054 266.79420104 249.72994602 271.27702916 C249.73315895 272.68229874 249.73760667 274.08756619 249.74344933 275.4928273 C249.78822423 286.75702819 249.29688302 297.88737238 248.18823242 309.09545898 C247.92091185 311.82323017 247.68487405 314.55262942 247.45092773 317.28344727 C246.12701014 331.9099889 243.63607707 345.33990529 236.48999023 358.38110352 C236.00876709 359.27724365 235.52754395 360.17338379 235.03173828 361.09667969 C231.24456291 367.97535025 227.1037779 373.92345279 221.67749023 379.63110352 C221.02264648 380.36329102 220.36780273 381.09547852 219.69311523 381.84985352 C214.95580183 386.92825349 209.7660499 390.34472359 203.67749023 393.63110352 C202.16155273 394.49735352 202.16155273 394.49735352 200.61499023 395.38110352 C190.99488708 399.47476443 180.06911002 399.68546912 169.76342773 400.27954102 C168.79344345 400.33664749 167.82345917 400.39375397 166.82408142 400.45259094 C126.80276393 402.77544269 86.74851583 404.45633633 46.67749023 405.63110352 C45.99488129 405.65124008 45.31227234 405.67137665 44.60897827 405.69212341 C-55.82654039 408.62027938 -55.82654039 408.62027938 -86.32250977 382.63110352 C-104.02161925 364.73996029 -109.37346938 335.9992812 -112.38500977 312.00610352 C-112.62574219 310.2155957 -112.62574219 310.2155957 -112.87133789 308.38891602 C-115.94417363 284.39858399 -116.66824001 260.4640559 -116.58045959 236.31433868 C-116.57237854 233.96800236 -116.56743291 231.62167564 -116.56311035 229.27532959 C-116.48727618 193.46577745 -114.72114876 158.17307064 -111.01364136 122.55647278 C-110.16865153 114.33106603 -109.53677676 106.09411869 -109.00610352 97.84228516 C-107.57113315 76.90160148 -101.75422778 59.89438801 -86.17797852 45.20922852 C-74.05317157 34.89676113 -57.58443783 26.63110352 -41.32250977 26.63110352 C-41.11625977 25.80610352 -40.91000977 24.98110352 -40.69750977 24.13110352 C-36.90280722 14.47186068 -28.71270183 6.14127995 -19.41963387 1.66984749 C-13.13910008 -0.43657977 -6.54936442 -0.05272601 0 0 Z M52.67749023 29.63110352 C49.66227634 38.67674521 47.96007513 46.66350025 51.67749023 55.63110352 C53.96585419 59.53722325 56.26378978 62.78288324 60.17749023 65.13110352 C63.86108857 65.86782318 67.24741355 66.34614186 70.67749023 64.63110352 C78.6186667 64.33698587 78.6186667 64.33698587 81.67749023 65.63110352 C83.02572497 69.67580771 83.23679676 73.40182677 82.67749023 77.63110352 C80.49165044 80.67566609 78.09638097 82.16586463 74.67749023 83.63110352 C74.67749023 84.29110352 74.67749023 84.95110352 74.67749023 85.63110352 C60.28105776 85.15667563 51.05406673 84.58415649 40.67749023 73.63110352 C32.37683228 63.92294269 31.49004677 53.53460731 31.60717773 41.20532227 C31.61225342 40.18676147 31.6173291 39.16820068 31.62255859 38.11877441 C31.63572993 35.62280568 31.65417849 33.12699468 31.67749023 30.63110352 C25.29118712 30.60561125 18.90489728 30.58817718 12.51855469 30.57617188 C10.34895334 30.57116349 8.17935534 30.56435488 6.00976562 30.55566406 C2.87946749 30.54344476 -0.25078576 30.53784011 -3.38110352 30.53344727 C-4.34084579 30.52828598 -5.30058807 30.52312469 -6.28941345 30.51780701 C-12.04904631 30.51733429 -17.6093326 30.89169098 -23.32250977 31.63110352 C-26.52783024 38.33663395 -26.53955344 47.06027473 -24.63500977 54.21313477 C-22.53308124 58.79358735 -19.6271691 61.95084393 -15.32250977 64.63110352 C-11.58300462 65.53287288 -7.85206892 66.39588309 -4.32250977 64.63110352 C0.01076198 64.14054445 1.99749367 64.15365912 5.61499023 66.69360352 C8.21076132 70.39061082 8.39002611 72.19754693 7.67749023 76.63110352 C5.58787376 80.30882851 3.06167958 82.62457925 -0.94750977 84.11938477 C-9.63392183 85.99096368 -18.46137643 85.763981 -26.18188477 81.16235352 C-33.82766489 75.69310934 -37.65302306 69.25382923 -41.32250977 60.63110352 C-41.70536133 59.74293945 -42.08821289 58.85477539 -42.48266602 57.93969727 C-43.68689924 53.19557847 -43.53332389 48.62770553 -43.44750977 43.75610352 C-43.43848633 42.78157227 -43.42946289 41.80704102 -43.42016602 40.80297852 C-43.39672599 38.41209624 -43.36391418 36.0217309 -43.32250977 33.63110352 C-60.11442309 35.10693539 -72.24870632 40.65514288 -84.32250977 52.63110352 C-85.10754883 53.35813477 -85.89258789 54.08516602 -86.70141602 54.83422852 C-99.38380466 67.45223956 -102.2432911 85.13502686 -103.52716064 102.23849487 C-103.82572713 106.21287373 -104.14481063 110.18560963 -104.46313477 114.15844727 C-104.53005524 114.99849808 -104.59697571 115.83854889 -104.66592407 116.70405579 C-105.18049745 123.08220748 -105.7604454 129.45272237 -106.36938477 135.82250977 C-106.45874298 136.76026245 -106.5481012 137.69801514 -106.64016724 138.66418457 C-106.99249648 142.35071374 -107.34590857 146.03710116 -107.70892334 149.72259521 C-107.83548309 151.00834442 -107.83548309 151.00834442 -107.96459961 152.32006836 C-108.03834808 153.06292084 -108.11209656 153.80577332 -108.18807983 154.57113647 C-109.93214766 173.29183347 -110.47773872 191.95654136 -110.45532227 210.75219727 C-110.45599875 212.79614778 -110.45697162 214.84009822 -110.45822144 216.88404846 C-110.4596799 221.12518088 -110.4576028 225.36629197 -110.45288086 229.60742188 C-110.44715895 235.00532682 -110.45048994 240.40318229 -110.45645332 245.80108547 C-110.46008756 250.00586818 -110.45890769 254.21063937 -110.45632553 258.41542244 C-110.45566549 260.40506051 -110.45645181 262.39469968 -110.45880508 264.38433647 C-111.02089602 283.80646123 -111.02089602 283.80646123 -107.32250977 302.63110352 C-106.91340294 304.91703017 -106.55746497 307.21287064 -106.24438477 309.51391602 C-106.05545088 310.84998481 -105.86555364 312.18591765 -105.67480469 313.52172852 C-105.57718842 314.21331055 -105.47957214 314.90489258 -105.3789978 315.61743164 C-102.36849648 336.62469371 -98.41465418 363.86799856 -81.32250977 378.63110352 C-78.76357916 380.53866997 -76.13364481 382.12494412 -73.32250977 383.63110352 C-72.70762695 383.97786133 -72.09274414 384.32461914 -71.45922852 384.68188477 C-43.50055056 399.67421932 -7.98158996 399.13533407 22.85652161 398.89740753 C26.0108657 398.87524934 29.16521648 398.86404989 32.31961441 398.85250282 C63.61551613 398.73498505 94.85094549 398.05328039 126.11499023 396.63110352 C127.03453491 396.58930969 127.95407959 396.54751587 128.90148926 396.50445557 C141.17788748 395.93995028 141.17788748 395.93995028 153.41503906 394.84106445 C157.03045694 394.50554493 160.64966095 394.43874608 164.27807617 394.34130859 C184.11722607 393.78239163 201.08805485 391.83252575 216.07592773 377.47094727 C220.56155423 372.57447509 224.13237851 367.22974376 227.67749023 361.63110352 C228.24338867 360.78676758 228.80928711 359.94243164 229.39233398 359.07250977 C238.25262182 345.34244541 240.0639773 330.80308336 241.47368145 314.87170887 C241.61461537 313.32232863 241.76224353 311.77354804 241.91525745 310.22531414 C243.89284802 290.0283771 243.97531992 269.92947791 243.94614124 249.65823603 C243.94099087 244.94475246 243.94579619 240.23127572 243.94891357 235.51779175 C243.9525224 227.62602307 243.94783088 219.7342922 243.93823242 211.8425293 C243.92730073 202.75019112 243.93091992 193.65794234 243.94188523 184.56560624 C243.95098358 176.70253143 243.95223253 168.83948339 243.94700789 160.97640502 C243.94390895 156.30387713 243.94342227 151.63139122 243.95008087 146.95886612 C243.95589296 142.57714036 243.95178743 138.19552952 243.94029236 133.81381607 C243.9376686 132.21595449 243.93837131 130.61808308 243.94281769 129.02022552 C243.96550424 120.03396495 243.46839415 111.47190798 241.67749023 102.63110352 C241.40479771 101.02725185 241.13367077 99.42313216 240.86499023 97.81860352 C236.86999385 78.69751395 228.61267006 58.00958397 211.91552734 46.87255859 C192.75114286 34.62062703 174.17367262 30.76336916 151.67749023 30.63110352 C150.58388184 30.62272461 149.49027344 30.6143457 148.36352539 30.60571289 C141.46767567 30.56234897 134.5731989 30.57208046 127.67749023 30.63110352 C124.26547112 37.51017432 124.66052142 46.15768651 125.67749023 53.63110352 C127.49260863 58.71472694 130.29487883 62.25880598 135.11499023 64.75610352 C139.12920039 65.74204987 141.64248305 65.40978911 145.67749023 64.63110352 C150.03997175 64.31949769 153.95650943 64.05995369 157.67749023 66.63110352 C159.09286114 70.56784554 159.03409387 74.48487755 157.80249023 78.44360352 C152.76876403 83.62538049 146.94403635 84.91937898 139.86499023 85.25610352 C131.16359441 85.02016545 123.80238397 81.79300567 117.67749023 75.63110352 C117.01749023 75.63110352 116.35749023 75.63110352 115.67749023 75.63110352 C115.58467773 75.11418945 115.49186523 74.59727539 115.39624023 74.06469727 C114.22034728 70.08327709 112.13682982 66.51018429 110.20483398 62.85180664 C107.1789041 56.98352839 106.53793355 52.43161101 106.55249023 45.88110352 C106.54991211 44.73125977 106.54733398 43.58141602 106.54467773 42.39672852 C106.69525383 38.12745344 107.20573452 33.8769049 107.67749023 29.63110352 C89.52749023 29.63110352 71.37749023 29.63110352 52.67749023 29.63110352 Z " fill="#AE9BA6" transform="translate(127.322509765625,-0.631103515625)"/>
<path d="M0 0 C36.63 0 73.26 0 111 0 C109 2 109 2 105.4375 3.5625 C97.89428417 7.28619275 92.70338304 12.82373806 89.875 20.6875 C88.3125579 23.85639665 87.04000631 25.56683254 83.73974609 26.94140625 C79.84778489 28.1083604 75.91657623 28.99817441 71.95117188 29.87719727 C54.24398399 33.81942056 40.02161999 43.62064603 30 58.875 C24.20918469 68.30007783 20.99492471 77.76873537 19.96484375 88.734375 C19.88298828 89.55747665 19.80113281 90.38057831 19.71679688 91.22862244 C18.75286479 101.14683709 18.0386361 111.08465803 17.32275391 121.02319336 C16.69031014 129.75005103 15.99028485 138.44893589 14.9765625 147.140625 C13.97531712 155.81209368 13.31043757 164.46975895 12.875 173.1875 C12.83363922 174.01117065 12.79227844 174.83484131 12.74966431 175.68347168 C10.70517621 218.40426708 9.63278417 262.50768549 15 305 C15.24073242 306.95292969 15.24073242 306.95292969 15.48632812 308.9453125 C17.28720156 324.16134624 17.28720156 324.16134624 21.26367188 338.89990234 C21.98350919 340.95296621 22.57944076 343.00404497 23.140625 345.10546875 C27.35719327 360.75673427 33.56905348 377.40654851 47.9375 386.4375 C53.75777825 389.58751062 59.91662368 391.97220789 66.1875 394.0625 C70.03991662 396.716387 71.69441351 400.14395936 74.0546875 404.12890625 C76.63474743 407.93682603 79.7364973 410.6425437 83.27734375 413.5390625 C84.13005859 414.26222656 84.13005859 414.26222656 85 415 C85 415.33 85 415.66 85 416 C56.95 416 28.9 416 0 416 C0 278.72 0 141.44 0 0 Z " fill="#FAE4F1" transform="translate(0,0)"/>
<path d="M0 0 C0.33 0.66 0.66 1.32 1 2 C-0.2375 2.28875 -1.475 2.5775 -2.75 2.875 C-5.71156344 3.61932214 -8.40246951 4.33758049 -11 6 C-11.33 6.66 -11.66 7.32 -12 8 C-6.06 8 -0.12 8 6 8 C6 6.68 6 5.36 6 4 C6.99 4.33 7.98 4.66 9 5 C9 5.99 9 6.98 9 8 C13.29 8 17.58 8 22 8 C22.33 6.35 22.66 4.7 23 3 C23.33 3 23.66 3 24 3 C24 4.65 24 6.3 24 8 C25.03125 8.103125 26.0625 8.20625 27.125 8.3125 C48.53630836 11.04585851 69.29349883 19.7096486 84 36 C87.26785644 40.35513068 89.67405029 45.09425328 92 50 C92.40476562 50.81339844 92.80953125 51.62679687 93.2265625 52.46484375 C96.05128012 58.42693858 98.07269715 64.70042748 100 71 C100.29132813 71.94746094 100.58265625 72.89492187 100.8828125 73.87109375 C105.68971819 91.06861555 104.20261334 109.9067149 104.30332303 127.60370517 C104.32557141 131.35318022 104.35279717 135.10261966 104.37937927 138.85206604 C104.423427 145.16185866 104.46421393 151.47166516 104.50268555 157.78149414 C104.55140601 165.77056204 104.60514167 173.75958727 104.66066074 181.7486105 C104.70919022 188.73349484 104.75566392 195.71839269 104.8016727 202.70329404 C104.81138247 204.17311689 104.8211575 205.64293931 104.83100247 207.11276126 C104.89527371 216.70838842 104.95166983 226.30400964 104.99131346 235.89977264 C104.99723864 237.33236014 105.00336898 238.7649468 105.00967836 240.19753265 C105.02912442 244.68032654 105.04381031 249.16309752 105.05245578 253.64592564 C105.05566872 255.05119522 105.06011643 256.45646267 105.0659591 257.86172378 C105.110734 269.12592467 104.61939278 280.25626887 103.51074219 291.46435547 C103.24342161 294.19212666 103.00738382 296.9215259 102.7734375 299.65234375 C101.44951991 314.27888539 98.95858684 327.70880178 91.8125 340.75 C91.33127686 341.64614014 90.85005371 342.54228027 90.35424805 343.46557617 C86.56707268 350.34424674 82.42628767 356.29234927 77 362 C76.34515625 362.7321875 75.6903125 363.464375 75.015625 364.21875 C70.27831159 369.29714997 65.08855967 372.71362008 59 376 C57.4840625 376.86625 57.4840625 376.86625 55.9375 377.75 C46.31739685 381.84366092 35.39161978 382.05436561 25.0859375 382.6484375 C24.11595322 382.70554398 23.14596893 382.76265045 22.14659119 382.82148743 C-17.87472631 385.14433918 -57.9289744 386.82523281 -98 388 C-98.68260895 388.02013657 -99.3652179 388.04027313 -100.06851196 388.0610199 C-200.50403063 390.98917587 -200.50403063 390.98917587 -231 365 C-248.69910949 347.10885678 -254.05095962 318.36817768 -257.0625 294.375 C-257.30323242 292.58449219 -257.30323242 292.58449219 -257.54882812 290.7578125 C-260.62166386 266.76748047 -261.34573024 242.83295239 -261.25794983 218.68323517 C-261.24986878 216.33689884 -261.24492315 213.99057213 -261.24060059 211.64422607 C-261.16476642 175.83467393 -259.398639 140.54196713 -255.69113159 104.92536926 C-254.84614176 96.69996251 -254.21426699 88.46301517 -253.68359375 80.21118164 C-252.24862338 59.27049796 -246.43171802 42.26328449 -230.85546875 27.578125 C-217.67926477 16.37141677 -203.54042403 11.97990514 -186.94848633 8.47729492 C-184.93707448 8.06085682 -184.93707448 8.06085682 -183 7 C-183.14168137 8.43791516 -183.28851043 9.8753237 -183.4375 11.3125 C-183.55931641 12.51326172 -183.55931641 12.51326172 -183.68359375 13.73828125 C-184 16 -184 16 -185 19 C-185.08239169 20.84610532 -185.10743359 22.69505164 -185.09765625 24.54296875 C-185.09443359 25.61611328 -185.09121094 26.68925781 -185.08789062 27.79492188 C-185.07951172 28.91447266 -185.07113281 30.03402344 -185.0625 31.1875 C-185.05798828 32.31865234 -185.05347656 33.44980469 -185.04882812 34.61523438 C-185.03703498 37.41020927 -185.0205765 40.2050782 -185 43 C-185.66 43 -186.32 43 -187 43 C-189.20796035 37.659005 -189.26953278 32.92321407 -189.1875 27.25 C-189.1865332 25.95642578 -189.1865332 25.95642578 -189.18554688 24.63671875 C-189.14079241 18.28158482 -189.14079241 18.28158482 -188 16 C-204.23107796 18.23876937 -217.51822386 24.06309039 -229 36 C-230.05767578 36.97646484 -230.05767578 36.97646484 -231.13671875 37.97265625 C-243.37200289 50.06810857 -245.97756627 68.26040161 -247.20465088 84.60739136 C-247.50321737 88.58177022 -247.82230087 92.55450611 -248.140625 96.52734375 C-248.20754547 97.36739456 -248.27446594 98.20744537 -248.34341431 99.07295227 C-248.85798769 105.45110397 -249.43793563 111.82161886 -250.046875 118.19140625 C-250.13623322 119.12915894 -250.22559143 120.06691162 -250.31765747 121.03308105 C-250.66998671 124.71961023 -251.02339881 128.40599764 -251.38641357 132.0914917 C-251.47078674 132.94865784 -251.55515991 133.80582397 -251.64208984 134.68896484 C-251.71583832 135.43181732 -251.78958679 136.1746698 -251.86557007 136.94003296 C-253.6096379 155.66072996 -254.15522895 174.32543784 -254.1328125 193.12109375 C-254.13348898 195.16504427 -254.13446185 197.2089947 -254.13571167 199.25294495 C-254.13717013 203.49407737 -254.13509304 207.73518846 -254.13037109 211.97631836 C-254.12464919 217.37422331 -254.12798017 222.77207878 -254.13394356 228.16998196 C-254.13757779 232.37476466 -254.13639793 236.57953585 -254.13381577 240.78431892 C-254.13315573 242.773957 -254.13394204 244.76359617 -254.13629532 246.75323296 C-254.69838626 266.17535771 -254.69838626 266.17535771 -251 285 C-250.59089317 287.28592665 -250.2349552 289.58176712 -249.921875 291.8828125 C-249.73294112 293.21888129 -249.54304387 294.55481413 -249.35229492 295.890625 C-249.25467865 296.58220703 -249.15706238 297.27378906 -249.05648804 297.98632812 C-244.25237184 332.81239528 -244.25237184 332.81239528 -225 361 C-194.61659647 380.1224218 -156.60342496 380.53466252 -121.82096863 380.26630402 C-118.66662453 380.24414582 -115.51227375 380.23294638 -112.35787582 380.22139931 C-81.0619741 380.10388154 -49.82654474 379.42217687 -18.5625 378 C-17.64295532 377.95820618 -16.72341064 377.91641235 -15.77600098 377.87335205 C-3.49960275 377.30884676 -3.49960275 377.30884676 8.73754883 376.20996094 C12.35296671 375.87444142 15.97217071 375.80764257 19.60058594 375.71020508 C38.77395491 375.17004478 56.05782327 373.50255293 70.62109375 359.6171875 C75.00830673 354.79053282 78.5061524 349.48265316 82 344 C82.85078125 342.7315625 82.85078125 342.7315625 83.71875 341.4375 C92.57286947 327.70458001 94.38647394 313.17212817 95.79619122 297.24060535 C95.93712514 295.69122512 96.0847533 294.14244453 96.23776722 292.59421062 C98.21535778 272.39727359 98.29782968 252.2983744 98.26865101 232.02713251 C98.26350063 227.31364894 98.26830596 222.6001722 98.27142334 217.88668823 C98.27503217 209.99491956 98.27034065 202.10318868 98.26074219 194.21142578 C98.2498105 185.1190876 98.25342968 176.02683883 98.264395 166.93450272 C98.27349334 159.07142792 98.2747423 151.20837988 98.26951766 143.34530151 C98.26641872 138.67277362 98.26593204 134.00028771 98.27259064 129.3277626 C98.27840272 124.94603684 98.2742972 120.56442601 98.26280212 116.18271255 C98.26017837 114.58485097 98.26088108 112.98697956 98.26532745 111.38912201 C98.288014 102.40286144 97.79090392 93.84080446 96 85 C95.72730747 83.39614833 95.45618054 81.79202864 95.1875 80.1875 C91.31733945 61.66390713 83.4515504 41.10966763 67.28881836 30.29223633 C49.17277425 18.65216613 31.3578376 14.24059161 9.98095703 14.03076172 C6.76628733 13.99758822 3.55379843 13.92244259 0.33984375 13.84765625 C-1.85672912 13.81240162 -4.05334621 13.77978904 -6.25 13.75 C-7.29244873 13.72832764 -8.33489746 13.70665527 -9.40893555 13.68432617 C-10.37226807 13.68021729 -11.33560059 13.6761084 -12.328125 13.671875 C-13.1830957 13.6625293 -14.03806641 13.65318359 -14.91894531 13.64355469 C-15.60569336 13.76118164 -16.29244141 13.87880859 -17 14 C-17.66 14.99 -18.32 15.98 -19 17 C-19.66 17 -20.32 17 -21 17 C-20.69876002 10.97520048 -17.91001635 7.33065381 -14 3 C-9.69741433 -0.72115517 -5.41327664 -0.31842804 0 0 Z " fill="#AA97A2" transform="translate(272,17)"/>
<path d="M0 0 C37.62 0 75.24 0 114 0 C114 29.7 114 59.4 114 90 C112.35 88.35 110.7 86.7 109 85 C107.15499112 83.50390397 105.27836616 82.04611166 103.375 80.625 C102.32699219 79.83867188 101.27898437 79.05234375 100.19921875 78.2421875 C97.27101211 76.18994011 94.31037317 74.48157933 91.1875 72.75 C85.56813594 69.30064973 83.26929477 64.97377545 80.53515625 59.0859375 C73.2441876 44.42979188 54.89896117 35.19138432 40 30 C36.31774868 28.95605105 32.60975506 28.08402536 28.875 27.25 C27.91851562 27.02957031 26.96203125 26.80914063 25.9765625 26.58203125 C23.65257659 26.04751449 21.32720286 25.52029653 19 25 C18.88027832 24.39019287 18.76055664 23.78038574 18.63720703 23.15209961 C18.47075684 22.34780518 18.30430664 21.54351074 18.1328125 20.71484375 C17.89135498 19.52169556 17.89135498 19.52169556 17.64501953 18.30444336 C16.71445332 14.9798353 15.02753293 12.77096168 13 10 C13 9.34 13 8.68 13 8 C11.68 7.34 10.36 6.68 9 6 C9 5.34 9 4.68 9 4 C7.88625 3.8453125 7.88625 3.8453125 6.75 3.6875 C4 3 4 3 0 0 Z " fill="#FAE4F1" transform="translate(278,0)"/>
<path d="M0 0 C0.88854429 -0.00453111 1.77708859 -0.00906223 2.69255847 -0.01373065 C5.68194732 -0.02643167 8.67115532 -0.0247506 11.66056824 -0.02310181 C13.79903397 -0.02908354 15.93749754 -0.03588825 18.07595825 -0.04345703 C23.89419123 -0.06116137 29.71236542 -0.0658143 35.53062272 -0.0670886 C40.38406012 -0.06898521 45.23748375 -0.07634007 50.09091586 -0.08343279 C61.54057268 -0.09973154 72.99019803 -0.10460043 84.43986511 -0.10317993 C96.2578992 -0.10197841 108.07575069 -0.12307904 119.89373857 -0.15466726 C130.0330958 -0.18080475 140.1723933 -0.19154827 150.31178397 -0.19026911 C156.37061867 -0.18975869 162.42929121 -0.19548585 168.48809242 -0.21662521 C174.18689962 -0.23596469 179.88538926 -0.23616131 185.58420753 -0.22159195 C187.67640648 -0.21949736 189.76862507 -0.22424326 191.86079025 -0.23631287 C194.71624375 -0.25171934 197.57059608 -0.24248743 200.42602539 -0.22705078 C201.66908037 -0.24248147 201.66908037 -0.24248147 202.93724757 -0.25822389 C208.20616684 -0.19524423 211.22365655 0.76821093 215.40348816 4.26742554 C216.9537328 7.36791482 216.69340831 9.84636772 216.40348816 13.26742554 C214.52848816 16.20492554 214.52848816 16.20492554 212.40348816 18.26742554 C211.74348816 18.26742554 211.08348816 18.26742554 210.40348816 18.26742554 C210.40348816 18.92742554 210.40348816 19.58742554 210.40348816 20.26742554 C181.78818442 20.3841258 153.17291625 20.47234854 124.55742264 20.5264864 C111.27131796 20.55228951 97.98539501 20.58748039 84.6993866 20.6446228 C73.12195418 20.69439307 61.5446287 20.72670122 49.96709228 20.73786801 C43.83443071 20.74439751 37.70207511 20.75978779 31.56951141 20.79607582 C25.80097209 20.82993428 20.0328657 20.84049892 14.26423645 20.83296394 C12.14376729 20.83434303 10.02328412 20.84433553 7.9029007 20.86345291 C5.01358246 20.888232 2.1259112 20.88238596 -0.76344299 20.86869812 C-1.60780025 20.88326233 -2.45215751 20.89782653 -3.32210135 20.91283208 C-7.33260553 20.86126943 -9.15722257 20.68942001 -12.10390091 17.85875225 C-14.1608375 14.28769791 -14.82093195 11.37348242 -14.59651184 7.26742554 C-11.51928372 0.18980085 -7.04102411 -0.02610439 0 0 Z " fill="#F6DFF0" transform="translate(92.59651184082031,214.73257446289063)"/>
<path d="M0 0 C0.89534096 -0.00427212 1.79068193 -0.00854425 2.71315444 -0.01294583 C5.70768857 -0.02116947 8.70081627 0.00629905 11.69522095 0.03364563 C13.84386156 0.03505623 15.99250459 0.03426388 18.1411438 0.03143311 C23.97139221 0.02999804 29.80112669 0.05940308 35.63125563 0.09430289 C41.72511155 0.12555098 47.81897915 0.12849593 53.91290283 0.13442993 C65.45133884 0.14997285 76.98953809 0.19100766 88.52786982 0.24117738 C101.66436404 0.29705665 114.80086955 0.32455383 127.93745303 0.34965456 C154.95921658 0.4019229 181.98076996 0.48987417 209.00234985 0.60127258 C209.00234985 1.26127258 209.00234985 1.92127258 209.00234985 2.60127258 C210.20891235 3.03439758 210.20891235 3.03439758 211.43984985 3.47627258 C214.00234985 4.60127258 214.00234985 4.60127258 215.00234985 6.60127258 C215.70388832 13.73358028 215.70388832 13.73358028 212.62734985 17.53877258 C208.25557459 20.97373886 204.93430495 20.74496071 199.55059814 20.73498535 C198.6655807 20.73725091 197.78056325 20.73951646 196.86872709 20.74185067 C193.88542293 20.74821105 190.90216397 20.74736001 187.91885376 20.74653625 C185.78714438 20.74952648 183.65543554 20.75292869 181.52372742 20.75671387 C175.72004047 20.76557211 169.91636825 20.76789275 164.11267519 20.76852965 C159.27401617 20.76947731 154.43536062 20.77315397 149.59670293 20.77670175 C138.18406524 20.78485331 126.77143544 20.78728535 115.35879517 20.78657532 C103.57204136 20.78597439 91.78533329 20.79652759 79.99859107 20.81231898 C69.89156332 20.82537922 59.78455056 20.83075985 49.67751443 20.83011991 C43.63554489 20.82986447 37.59361598 20.83274102 31.55165482 20.84329796 C25.87017992 20.85295341 20.1887847 20.8530757 14.50730705 20.84578133 C12.41911007 20.84473229 10.3309082 20.84711719 8.24271965 20.85314178 C5.39774126 20.86081967 2.55304093 20.85624484 -0.29193115 20.84851074 C-1.12325133 20.85365431 -1.9545715 20.85879787 -2.8110832 20.8640973 C-9.97559186 20.82089389 -9.97559186 20.82089389 -12.99765015 18.60127258 C-15.27561656 15.22359824 -15.98842781 13.12694565 -16.06015015 9.03877258 C-13.51843221 0.81556751 -7.62265753 -0.13363588 0 0 Z " fill="#F6DFF1" transform="translate(94.99765014648438,142.3987274169922)"/>
<path d="M0 0 C0.86424088 -0.00671722 1.72848175 -0.01343445 2.61891174 -0.02035522 C5.46499442 -0.0392925 8.31084072 -0.04325733 11.15698242 -0.04541016 C13.14466955 -0.05184127 15.13235573 -0.05856987 17.12004089 -0.06558228 C21.2835001 -0.07754453 25.44687639 -0.0812642 29.61035156 -0.08007812 C34.92979263 -0.07987505 40.24869877 -0.10717026 45.56801319 -0.14162254 C49.67313551 -0.16392566 53.77812981 -0.16791461 57.8833065 -0.16685867 C59.8436028 -0.16920975 61.80390289 -0.17800534 63.76413918 -0.19352341 C66.51370684 -0.21325163 69.26213029 -0.20731867 72.01171875 -0.1953125 C72.81150146 -0.20655151 73.61128418 -0.21779053 74.43530273 -0.22937012 C81.2555472 -0.15418383 87.19601009 1.82118594 92.50463867 6.18505859 C97.42807146 12.19850511 100.79383897 17.17406077 100.19995117 25.29052734 C99.20995117 23.31052734 99.20995117 23.31052734 98.19995117 21.29052734 C97.86995117 22.61052734 97.53995117 23.93052734 97.19995117 25.29052734 C92.90995117 25.29052734 88.61995117 25.29052734 84.19995117 25.29052734 C83.70495117 23.80552734 83.70495117 23.80552734 83.19995117 22.29052734 C82.53995117 21.96052734 81.87995117 21.63052734 81.19995117 21.29052734 C81.19995117 22.61052734 81.19995117 23.93052734 81.19995117 25.29052734 C75.25995117 25.29052734 69.31995117 25.29052734 63.19995117 25.29052734 C64.19995117 22.29052734 64.19995117 22.29052734 66.94995117 20.66552734 C69.76664063 19.47385104 72.19038534 18.73311055 75.19995117 18.29052734 C70.43217829 17.80401991 66.48975251 17.62410515 62.38745117 20.35302734 C58.03872782 23.90465291 55.09737887 28.68160422 54.19995117 34.29052734 C54.85995117 34.29052734 55.51995117 34.29052734 56.19995117 34.29052734 C56.52995117 33.30052734 56.85995117 32.31052734 57.19995117 31.29052734 C57.69495117 32.28052734 57.69495117 32.28052734 58.19995117 33.29052734 C57.70495117 34.28052734 57.70495117 34.28052734 57.19995117 35.29052734 C55.90499528 48.31941527 55.90499528 48.31941527 60.64916992 59.93896484 C63.37280598 62.31271314 65.71290223 63.38870434 69.19995117 64.29052734 C72.67481589 64.03228742 72.67481589 64.03228742 76.19995117 63.29052734 C79.07062692 62.9337512 81.25141671 63.0051853 84.19995117 63.29052734 C87.13745117 65.72802734 87.13745117 65.72802734 89.19995117 68.29052734 C89.52995117 68.62052734 89.85995117 68.95052734 90.19995117 69.29052734 C90.6256274 72.95134289 90.3117137 75.04756532 88.76245117 78.41552734 C84.4939431 83.20458518 80.24278719 84.86982534 73.92260742 85.74365234 C62.99101324 86.27513317 54.29497828 82.60692829 46.19995117 75.29052734 C44.50463867 72.73974609 44.50463867 72.73974609 43.07495117 69.97802734 C42.57350586 69.00994141 42.07206055 68.04185547 41.55541992 67.04443359 C37.96939296 59.75870157 36.05807258 53.7523805 36.01245117 45.54052734 C35.99827148 44.39068359 35.9840918 43.24083984 35.96948242 42.05615234 C36.19995117 38.29052734 36.19995117 38.29052734 38.19995117 29.29052734 C19.38995117 29.29052734 0.57995117 29.29052734 -18.80004883 29.29052734 C-17.77195593 24.15006287 -17.60105847 23.59623504 -13.86254883 20.54052734 C-13.15227539 19.94755859 -12.44200195 19.35458984 -11.71020508 18.74365234 C-8.52265619 16.31876852 -6.63149116 16.17730372 -2.67504883 16.22802734 C-1.7649707 16.23705078 -0.85489258 16.24607422 0.08276367 16.25537109 C1.13077148 16.27277344 1.13077148 16.27277344 2.19995117 16.29052734 C2.19995117 16.95052734 2.19995117 17.61052734 2.19995117 18.29052734 C2.98370117 18.55865234 3.76745117 18.82677734 4.57495117 19.10302734 C7.19995117 20.29052734 7.19995117 20.29052734 9.19995117 23.29052734 C12.08591063 23.87533856 12.08591063 23.87533856 15.32495117 23.97802734 C16.4206543 24.04376953 17.51635742 24.10951172 18.64526367 24.17724609 C19.48831055 24.21462891 20.33135742 24.25201172 21.19995117 24.29052734 C18.92178078 15.9557576 15.36552543 9.67780876 7.69604492 5.21240234 C0.60296801 2.59273701 -7.42869739 3.22407424 -14.23754883 6.35302734 C-22.45165739 11.12773084 -28.62453213 18.29323003 -31.80004883 27.29052734 C-32.13004883 26.63052734 -32.46004883 25.97052734 -32.80004883 25.29052734 C-32.47004883 24.30052734 -32.14004883 23.31052734 -31.80004883 22.29052734 C-32.46004883 22.29052734 -33.12004883 22.29052734 -33.80004883 22.29052734 C-31.00632775 14.05640205 -24.19141539 7.59652234 -16.81958008 3.22802734 C-11.09514439 0.57064907 -6.20520235 -0.0069792 0 0 Z " fill="#AE9AA5" transform="translate(196.800048828125,-0.29052734375)"/>
<path d="M0 0 C1.72432367 1.08214774 3.45299048 2.15689083 5.18432617 3.2277832 C6.86461024 4.26740194 8.53984904 5.31516179 10.21484375 6.36328125 C12.94361153 8.09676731 12.94361153 8.09676731 16 9 C16 9.66 16 10.32 16 11 C16.86625 11.12375 17.7325 11.2475 18.625 11.375 C22 12 22 12 24.7734375 13.01953125 C28.3067886 14.09322511 31.31610333 14.23575215 35 14.3125 C42.68851133 14.79150968 42.68851133 14.79150968 45.8125 17.125 C48.49357719 20.64870145 49.15535185 22.57247226 49 27 C46.94551196 31.03288393 45.2466924 33.43319028 41 35 C27.02987168 36.6001028 14.88634099 33.54572032 3 26 C1.76438022 25.21996131 0.52869737 24.44002251 -0.70703125 23.66015625 C-2.75796975 22.36326829 -4.80808077 21.0653207 -6.85351562 19.75976562 C-8.88647005 18.47773982 -10.93471033 17.2292099 -13 16 C-13.65274902 15.60876953 -14.30549805 15.21753906 -14.97802734 14.81445312 C-20.01289221 12.02575908 -24.27705152 11.29718121 -30 11.375 C-30.81871582 11.37975342 -31.63743164 11.38450684 -32.48095703 11.3894043 C-41.6313087 11.69087965 -50.56138921 14.48911598 -58.28125 19.47265625 C-62.50191838 21.84375013 -67.02377848 23.16350837 -71.625 24.625 C-72.55957031 24.93695313 -73.49414062 25.24890625 -74.45703125 25.5703125 C-75.39160156 25.869375 -76.32617188 26.1684375 -77.2890625 26.4765625 C-78.12131348 26.74549316 -78.95356445 27.01442383 -79.81103516 27.29150391 C-88.12225766 29.13801805 -96.69950208 29.16541106 -105.1796875 29.203125 C-106.70337448 29.21167511 -106.70337448 29.21167511 -108.25784302 29.22039795 C-110.38379905 29.22976619 -112.50976907 29.23634895 -114.63574219 29.24023438 C-117.88762066 29.25003805 -121.13889162 29.28117686 -124.390625 29.3125 C-126.46614212 29.31902244 -128.5416637 29.32427588 -130.6171875 29.328125 C-131.5849411 29.3404718 -132.5526947 29.3528186 -133.54977417 29.36553955 C-138.48756385 29.34916688 -142.05448737 29.32838649 -146 26 C-148.48386059 22.27420911 -148.3804212 20.41288598 -148 16 C-146.59539303 13.12694028 -145.25489001 11.25489001 -143 9 C-140.989151 8.7484436 -140.989151 8.7484436 -138.48461914 8.74462891 C-137.54505875 8.73766998 -136.60549835 8.73071106 -135.63746643 8.72354126 C-134.10182289 8.72503677 -134.10182289 8.72503677 -132.53515625 8.7265625 C-130.34960466 8.70622928 -128.16405785 8.68537785 -125.97851562 8.6640625 C-122.54756684 8.64171262 -119.11680859 8.62509424 -115.68579102 8.61914062 C-98.49583582 8.56888127 -80.53817892 8.50223608 -65.0625 0 C-63.67440732 -0.70423253 -62.28375746 -1.40344685 -60.890625 -2.09765625 C-59.90739258 -2.59096436 -59.90739258 -2.59096436 -58.90429688 -3.09423828 C-39.33811336 -12.40071788 -18.01792916 -11.61614344 0 0 Z " fill="#F5DEF0" transform="translate(225,286)"/>
<path d="M0 0 C0.88854429 -0.00453111 1.77708859 -0.00906223 2.69255847 -0.01373065 C5.68194732 -0.02643167 8.67115532 -0.0247506 11.66056824 -0.02310181 C13.79903397 -0.02908354 15.93749754 -0.03588825 18.07595825 -0.04345703 C23.89419123 -0.06116137 29.71236542 -0.0658143 35.53062272 -0.0670886 C40.38406012 -0.06898521 45.23748375 -0.07634007 50.09091586 -0.08343279 C61.54057268 -0.09973154 72.99019803 -0.10460043 84.43986511 -0.10317993 C96.2578992 -0.10197841 108.07575069 -0.12307904 119.89373857 -0.15466726 C130.0330958 -0.18080475 140.1723933 -0.19154827 150.31178397 -0.19026911 C156.37061867 -0.18975869 162.42929121 -0.19548585 168.48809242 -0.21662521 C174.18689962 -0.23596469 179.88538926 -0.23616131 185.58420753 -0.22159195 C187.67640648 -0.21949736 189.76862507 -0.22424326 191.86079025 -0.23631287 C194.71624375 -0.25171934 197.57059608 -0.24248743 200.42602539 -0.22705078 C201.66908037 -0.24248147 201.66908037 -0.24248147 202.93724757 -0.25822389 C208.20616684 -0.19524423 211.22365655 0.76821093 215.40348816 4.26742554 C216.9537328 7.36791482 216.69340831 9.84636772 216.40348816 13.26742554 C214.52848816 16.20492554 214.52848816 16.20492554 212.40348816 18.26742554 C211.74348816 18.26742554 211.08348816 18.26742554 210.40348816 18.26742554 C210.40348816 18.92742554 210.40348816 19.58742554 210.40348816 20.26742554 C181.78818442 20.3841258 153.17291625 20.47234854 124.55742264 20.5264864 C111.27131796 20.55228951 97.98539501 20.58748039 84.6993866 20.6446228 C73.12195418 20.69439307 61.5446287 20.72670122 49.96709228 20.73786801 C43.83443071 20.74439751 37.70207511 20.75978779 31.56951141 20.79607582 C25.80097209 20.82993428 20.0328657 20.84049892 14.26423645 20.83296394 C12.14376729 20.83434303 10.02328412 20.84433553 7.9029007 20.86345291 C5.01358246 20.888232 2.1259112 20.88238596 -0.76344299 20.86869812 C-1.60780025 20.88326233 -2.45215751 20.89782653 -3.32210135 20.91283208 C-7.33260553 20.86126943 -9.15722257 20.68942001 -12.10390091 17.85875225 C-14.1608375 14.28769791 -14.82093195 11.37348242 -14.59651184 7.26742554 C-11.51928372 0.18980085 -7.04102411 -0.02610439 0 0 Z M-10.59651184 6.26742554 C-10.911889 10.60386154 -11.04549031 12.59395783 -8.59651184 16.26742554 C-5.69460852 16.56820683 -3.00506541 16.67151042 -0.10006714 16.64837646 C0.78973943 16.65305644 1.67954599 16.65773641 2.5963164 16.6625582 C5.59590996 16.6745818 8.59505283 16.66502229 11.59465027 16.65560913 C13.73783639 16.65967159 15.88102041 16.66501163 18.02420044 16.67153931 C23.85885998 16.68525825 29.69336104 16.67989518 35.52802348 16.67040205 C41.62319933 16.66282813 47.71836124 16.66984482 53.8135376 16.67456055 C64.05212348 16.68002514 74.29064453 16.67280846 84.52922058 16.65853882 C96.37851215 16.64221535 108.22764885 16.64749584 120.07693666 16.66401803 C130.23576433 16.67761805 140.39454529 16.6795597 150.55337912 16.67170203 C156.62718435 16.66701678 162.70091673 16.66642392 168.77471733 16.67631149 C174.4849646 16.68495713 180.19501163 16.67900323 185.9052372 16.66162872 C188.00513755 16.65765083 190.10505466 16.65882006 192.20494843 16.66541672 C195.06354892 16.67357099 197.92150104 16.66338485 200.78005981 16.64837646 C201.61818378 16.65506863 202.45630774 16.6617608 203.3198294 16.66865575 C207.48730885 16.73295854 207.48730885 16.73295854 211.11555964 14.96648657 C213.24097531 12.16259575 212.77166387 9.64236954 212.40348816 6.26742554 C208.51716835 3.67654567 205.28682238 3.98946817 200.78005981 4.01345825 C199.44300998 4.00877828 199.44300998 4.00877828 198.07894903 4.00400376 C195.08021005 3.99600101 192.08167215 4.00235626 189.08293152 4.00863647 C186.9379769 4.00592764 184.79302321 4.00236732 182.64807129 3.99801636 C176.81356689 3.9888778 170.97913301 3.99244251 165.14462733 3.99877453 C159.04899192 4.00382628 152.95336269 3.99914544 146.85772705 3.9960022 C136.62093518 3.99236042 126.38417214 3.99716749 116.14738464 4.00668335 C104.29751366 4.01757119 92.44771148 4.01404076 80.59784216 4.00303054 C70.43816822 3.99396715 60.27851504 3.99266764 50.11883837 3.99790788 C44.04453532 4.00103243 37.97026466 4.00142358 31.89596367 3.9948349 C26.18738888 3.98907574 20.47890318 3.99303202 14.77033806 4.00462341 C12.67001494 4.00727755 10.56968437 4.00649215 8.46936417 4.00209808 C5.61278436 3.9966709 2.75649399 4.00344212 -0.10006714 4.01345825 C-1.36059917 4.00676609 -1.36059917 4.00676609 -2.64659649 3.99993873 C-7.09285099 3.84446663 -7.09285099 3.84446663 -10.59651184 6.26742554 Z " fill="#C4B2BD" transform="translate(92.59651184082031,214.73257446289063)"/>
<path d="M0 0 C0.89534096 -0.00427212 1.79068193 -0.00854425 2.71315444 -0.01294583 C5.70768857 -0.02116947 8.70081627 0.00629905 11.69522095 0.03364563 C13.84386156 0.03505623 15.99250459 0.03426388 18.1411438 0.03143311 C23.97139221 0.02999804 29.80112669 0.05940308 35.63125563 0.09430289 C41.72511155 0.12555098 47.81897915 0.12849593 53.91290283 0.13442993 C65.45133884 0.14997285 76.98953809 0.19100766 88.52786982 0.24117738 C101.66436404 0.29705665 114.80086955 0.32455383 127.93745303 0.34965456 C154.95921658 0.4019229 181.98076996 0.48987417 209.00234985 0.60127258 C209.00234985 1.26127258 209.00234985 1.92127258 209.00234985 2.60127258 C210.20891235 3.03439758 210.20891235 3.03439758 211.43984985 3.47627258 C214.00234985 4.60127258 214.00234985 4.60127258 215.00234985 6.60127258 C215.70388832 13.73358028 215.70388832 13.73358028 212.62734985 17.53877258 C208.25557459 20.97373886 204.93430495 20.74496071 199.55059814 20.73498535 C198.6655807 20.73725091 197.78056325 20.73951646 196.86872709 20.74185067 C193.88542293 20.74821105 190.90216397 20.74736001 187.91885376 20.74653625 C185.78714438 20.74952648 183.65543554 20.75292869 181.52372742 20.75671387 C175.72004047 20.76557211 169.91636825 20.76789275 164.11267519 20.76852965 C159.27401617 20.76947731 154.43536062 20.77315397 149.59670293 20.77670175 C138.18406524 20.78485331 126.77143544 20.78728535 115.35879517 20.78657532 C103.57204136 20.78597439 91.78533329 20.79652759 79.99859107 20.81231898 C69.89156332 20.82537922 59.78455056 20.83075985 49.67751443 20.83011991 C43.63554489 20.82986447 37.59361598 20.83274102 31.55165482 20.84329796 C25.87017992 20.85295341 20.1887847 20.8530757 14.50730705 20.84578133 C12.41911007 20.84473229 10.3309082 20.84711719 8.24271965 20.85314178 C5.39774126 20.86081967 2.55304093 20.85624484 -0.29193115 20.84851074 C-1.12325133 20.85365431 -1.9545715 20.85879787 -2.8110832 20.8640973 C-9.97559186 20.82089389 -9.97559186 20.82089389 -12.99765015 18.60127258 C-15.27561656 15.22359824 -15.98842781 13.12694565 -16.06015015 9.03877258 C-13.51843221 0.81556751 -7.62265753 -0.13363588 0 0 Z M-10.71247721 5.93719321 C-12.67351645 8.47640397 -12.32149804 10.49233282 -11.99765015 13.60127258 C-11.00765015 15.08627258 -11.00765015 15.08627258 -9.99765015 16.60127258 C-7.09555099 16.89984853 -4.4061445 17.00098582 -1.50120544 16.97549438 C-0.16649559 16.98145599 -0.16649559 16.98145599 1.19517809 16.98753804 C4.19478232 16.99720883 7.19392051 16.9853141 10.19351196 16.97358704 C12.33669715 16.97601344 14.47988121 16.97973128 16.62306213 16.98464966 C22.45772982 16.99408355 28.29223049 16.98461195 34.12688518 16.97131753 C40.22205692 16.96003145 46.3172201 16.96410837 52.41239929 16.96606445 C62.65098817 16.9669484 72.88951095 16.95584661 83.12808228 16.93745422 C94.97734824 16.91629073 106.82651732 16.91277494 118.67579836 16.91901618 C130.05718452 16.92470485 141.43853645 16.91906968 152.81991768 16.90784264 C157.67114455 16.90318948 162.52235053 16.9023259 167.37357903 16.90442848 C173.08379286 16.90630787 178.79390764 16.89823444 184.50409889 16.88236809 C186.60399847 16.87811416 188.70390807 16.87728209 190.80381012 16.88005829 C193.66229042 16.88326485 196.52047194 16.87423682 199.37892151 16.86196899 C200.21704547 16.86574832 201.05516944 16.86952764 201.9186911 16.87342149 C205.80122612 16.8437878 207.69644709 16.80520776 211.00234985 14.60127258 C211.47793191 12.69927858 211.47793191 12.69927858 211.37734985 10.60127258 C211.38508423 9.90002258 211.3928186 9.19877258 211.40078735 8.47627258 C211.14326385 6.19068664 211.14326385 6.19068664 208.00234985 4.60127258 C205.11086 4.40504165 202.31564677 4.32746368 199.4236145 4.34057617 C198.53703706 4.33675062 197.65045962 4.33292508 196.7370162 4.3289836 C193.75443759 4.31863201 190.77205071 4.32264983 187.78945923 4.32661438 C185.65597861 4.32226914 183.52249955 4.31708662 181.38902283 4.31112671 C175.58544761 4.29770621 169.7819374 4.29716136 163.97834969 4.29969001 C159.13954246 4.30075752 154.3007485 4.29588208 149.4619441 4.29108459 C138.05076072 4.27997914 126.63961025 4.27955802 115.22842407 4.28559875 C103.44103404 4.29164248 91.65376325 4.27931972 79.86639357 4.25802869 C69.75850648 4.24043995 59.65065744 4.23440695 49.5427556 4.23766643 C43.50025728 4.23948357 37.45784403 4.23680019 31.4153595 4.22295189 C25.73547845 4.21042225 20.05578401 4.21227136 14.37590599 4.22536278 C12.28728867 4.22773864 10.19865842 4.22495802 8.11005592 4.21673965 C5.26684584 4.20635574 2.42427167 4.21430516 -0.41891479 4.22705078 C-1.25246569 4.2196765 -2.08601659 4.21230221 -2.9448266 4.20470446 C-7.11002883 4.13490805 -7.11002883 4.13490805 -10.71247721 5.93719321 Z " fill="#B4A3AD" transform="translate(94.99765014648438,142.3987274169922)"/>
<path d="M0 0 C2.56997517 1.72736036 4.84143625 3.54384883 7.12109375 5.63671875 C7.67925781 6.13816406 8.23742187 6.63960937 8.8125 7.15625 C12.54014615 11.01133704 12.85627935 14.5169736 13.12109375 19.63671875 C11.18428214 19.71779458 9.24650035 19.7759435 7.30859375 19.82421875 C6.22964844 19.85902344 5.15070313 19.89382812 4.0390625 19.9296875 C1.12109375 19.63671875 1.12109375 19.63671875 -0.765625 18.125 C-1.13300781 17.63386719 -1.50039063 17.14273437 -1.87890625 16.63671875 C-1.87890625 17.95671875 -1.87890625 19.27671875 -1.87890625 20.63671875 C-7.81890625 20.63671875 -13.75890625 20.63671875 -19.87890625 20.63671875 C-18.87890625 17.63671875 -18.87890625 17.63671875 -16.12890625 16.01171875 C-13.3122168 14.82004244 -10.88847208 14.07930196 -7.87890625 13.63671875 C-12.49809171 13.16537329 -16.54304023 12.94073374 -20.56640625 15.51171875 C-26.29473154 20.38347203 -29.7486848 25.60282501 -30.42578125 33.1953125 C-30.82689747 41.79259832 -30.88662629 49.91274985 -24.87890625 56.63671875 C-24.00685547 57.64992188 -24.00685547 57.64992188 -23.1171875 58.68359375 C-18.67768716 63.18612959 -15.06615274 64.44649786 -8.78515625 64.6640625 C-8.15609375 64.65503906 -7.52703125 64.64601563 -6.87890625 64.63671875 C-6.87890625 63.97671875 -6.87890625 63.31671875 -6.87890625 62.63671875 C-5.60015625 62.57484375 -4.32140625 62.51296875 -3.00390625 62.44921875 C-1.92496094 62.39701172 -1.92496094 62.39701172 -0.82421875 62.34375 C-0.18226563 62.44042969 0.4596875 62.53710938 1.12109375 62.63671875 C3.45152933 66.13237211 3.70872619 67.52329165 3.12109375 71.63671875 C-1.19131985 76.07234416 -6.00556599 77.92219623 -12.12890625 78.01171875 C-20.07812438 77.84076782 -26.43471469 74.82706269 -32.25 69.45703125 C-41.12601451 59.53803182 -43.75253244 47.96291337 -43.29296875 34.96875 C-42.46312101 23.22823115 -37.0670928 13.31807526 -28.56640625 5.38671875 C-20.48473723 -1.05748792 -9.89871097 -4.68744929 0 0 Z " fill="#F5DEEF" transform="translate(279.87890625,4.36328125)"/>
<path d="M0 0 C5.50299091 3.76133108 10.60931739 8.22380472 13.00390625 14.609375 C13.03366341 16.275776 13.03679458 17.94303286 13.00390625 19.609375 C2.0150286 20.39805043 2.0150286 20.39805043 -2.12109375 17.171875 C-2.73984375 16.32625 -3.35859375 15.480625 -3.99609375 14.609375 C-4.65609375 14.279375 -5.31609375 13.949375 -5.99609375 13.609375 C-5.99609375 12.949375 -5.99609375 12.289375 -5.99609375 11.609375 C-13.74147372 11.64111836 -18.37501483 13.24853122 -23.99609375 18.609375 C-29.46818121 24.36946706 -30.36601821 30.34692225 -30.30859375 37.984375 C-30.3044043 38.73879883 -30.30021484 39.49322266 -30.29589844 40.27050781 C-30.13693227 48.07337902 -28.52319594 53.74729692 -22.99609375 59.609375 C-19.73896169 62.53713415 -17.04970014 63.18875671 -12.74609375 63.796875 C-11.12960938 64.03470703 -11.12960938 64.03470703 -9.48046875 64.27734375 C-8.25070313 64.44169922 -8.25070313 64.44169922 -6.99609375 64.609375 C-6.99609375 63.949375 -6.99609375 63.289375 -6.99609375 62.609375 C-0.67011582 62.25130078 -0.67011582 62.25130078 2.00390625 63.671875 C3.72257695 67.00179948 3.10724705 69.11546248 2.00390625 72.609375 C-2.80411987 76.81482865 -8.54749558 77.95128829 -14.79296875 77.8125 C-23.46501238 77.01294988 -29.16922064 72.88615734 -34.99609375 66.609375 C-43.45643994 56.36111252 -45.03862722 45.66921999 -43.99609375 32.609375 C-43.34270608 29.0914979 -42.35161446 25.91566681 -40.99609375 22.609375 C-40.74085938 21.93777344 -40.485625 21.26617188 -40.22265625 20.57421875 C-36.28587837 11.49073585 -28.65927436 3.73887577 -19.7421875 -0.44921875 C-13.4350007 -2.61142646 -6.088201 -2.82581428 0 0 Z " fill="#F4DDEF" transform="translate(204.99609375,4.390625)"/>
<path d="M0 0 C6.72382382 3.95519048 11.70468358 8.25691733 14.1875 15.875 C14.1875 17.195 14.1875 18.515 14.1875 19.875 C9.8975 19.875 5.6075 19.875 1.1875 19.875 C0.6925 17.895 0.6925 17.895 0.1875 15.875 C-4.43950929 12.94456078 -9.41889104 12.16477287 -14.8125 12.875 C-20.62607084 15.72246327 -26.17748553 20.94232202 -28.69921875 27.0078125 C-30.83128788 35.44536268 -30.09765664 44.36083729 -28.8125 52.875 C-28.1525 52.875 -27.4925 52.875 -26.8125 52.875 C-25.48046875 54.5546875 -25.48046875 54.5546875 -24 56.75 C-21.60999008 60.0736993 -19.94120206 61.90354069 -15.8125 62.875 C-15.8125 63.535 -15.8125 64.195 -15.8125 64.875 C-14.85150391 64.6584375 -14.85150391 64.6584375 -13.87109375 64.4375 C-8.75842035 63.34029438 -4.04315258 62.43911228 1.1875 62.875 C3.1875 64.875 3.1875 64.875 3.625 68.25 C3.1875 71.875 3.1875 71.875 1.0625 74.1875 C-5.03982063 77.76929689 -10.81416342 78.86445554 -17.8125 77.875 C-27.51552125 74.6358394 -33.52201461 68.77445709 -38.125 59.8125 C-43.69083399 48.20811735 -44.8331366 36.77627254 -40.75 24.5 C-36.07234845 13.01492819 -29.68214892 5.12504011 -18.375 -0.29296875 C-12.4205209 -2.22635907 -5.93154884 -1.7502931 0 0 Z " fill="#F5DEEF" transform="translate(128.8125,4.125)"/>
<path d="M0 0 C1.72432367 1.08214774 3.45299048 2.15689083 5.18432617 3.2277832 C6.86461024 4.26740194 8.53984904 5.31516179 10.21484375 6.36328125 C12.94361153 8.09676731 12.94361153 8.09676731 16 9 C16 9.66 16 10.32 16 11 C16.86625 11.12375 17.7325 11.2475 18.625 11.375 C22 12 22 12 24.7734375 13.01953125 C28.3067886 14.09322511 31.31610333 14.23575215 35 14.3125 C42.68851133 14.79150968 42.68851133 14.79150968 45.8125 17.125 C48.49357719 20.64870145 49.15535185 22.57247226 49 27 C46.94551196 31.03288393 45.2466924 33.43319028 41 35 C27.02987168 36.6001028 14.88634099 33.54572032 3 26 C1.76438022 25.21996131 0.52869737 24.44002251 -0.70703125 23.66015625 C-2.75796975 22.36326829 -4.80808077 21.0653207 -6.85351562 19.75976562 C-8.88647005 18.47773982 -10.93471033 17.2292099 -13 16 C-13.65274902 15.60876953 -14.30549805 15.21753906 -14.97802734 14.81445312 C-20.01289221 12.02575908 -24.27705152 11.29718121 -30 11.375 C-30.81871582 11.37975342 -31.63743164 11.38450684 -32.48095703 11.3894043 C-41.6313087 11.69087965 -50.56138921 14.48911598 -58.28125 19.47265625 C-62.50191838 21.84375013 -67.02377848 23.16350837 -71.625 24.625 C-72.55957031 24.93695313 -73.49414062 25.24890625 -74.45703125 25.5703125 C-75.39160156 25.869375 -76.32617188 26.1684375 -77.2890625 26.4765625 C-78.12131348 26.74549316 -78.95356445 27.01442383 -79.81103516 27.29150391 C-88.12225766 29.13801805 -96.69950208 29.16541106 -105.1796875 29.203125 C-106.70337448 29.21167511 -106.70337448 29.21167511 -108.25784302 29.22039795 C-110.38379905 29.22976619 -112.50976907 29.23634895 -114.63574219 29.24023438 C-117.88762066 29.25003805 -121.13889162 29.28117686 -124.390625 29.3125 C-126.46614212 29.31902244 -128.5416637 29.32427588 -130.6171875 29.328125 C-131.5849411 29.3404718 -132.5526947 29.3528186 -133.54977417 29.36553955 C-138.48756385 29.34916688 -142.05448737 29.32838649 -146 26 C-148.48386059 22.27420911 -148.3804212 20.41288598 -148 16 C-146.59539303 13.12694028 -145.25489001 11.25489001 -143 9 C-140.989151 8.7484436 -140.989151 8.7484436 -138.48461914 8.74462891 C-137.54505875 8.73766998 -136.60549835 8.73071106 -135.63746643 8.72354126 C-134.10182289 8.72503677 -134.10182289 8.72503677 -132.53515625 8.7265625 C-130.34960466 8.70622928 -128.16405785 8.68537785 -125.97851562 8.6640625 C-122.54756684 8.64171262 -119.11680859 8.62509424 -115.68579102 8.61914062 C-98.49583582 8.56888127 -80.53817892 8.50223608 -65.0625 0 C-63.67440732 -0.70423253 -62.28375746 -1.40344685 -60.890625 -2.09765625 C-59.90739258 -2.59096436 -59.90739258 -2.59096436 -58.90429688 -3.09423828 C-39.33811336 -12.40071788 -18.01792916 -11.61614344 0 0 Z M-45 -3 C-46.72476563 -2.61521484 -46.72476563 -2.61521484 -48.484375 -2.22265625 C-56.77684358 -0.21835627 -63.98492721 2.66279993 -71.6171875 6.38671875 C-81.94773497 11.31341171 -91.42101477 12.13374045 -102.734375 12.2109375 C-105.02214291 12.23897823 -107.30990326 12.26764244 -109.59765625 12.296875 C-113.18798836 12.33829622 -116.77817459 12.37520529 -120.36865234 12.40136719 C-123.84501829 12.42886333 -127.32075088 12.47469854 -130.796875 12.5234375 C-132.41405426 12.5283168 -132.41405426 12.5283168 -134.06390381 12.53329468 C-135.06214172 12.54986115 -136.06037964 12.56642761 -137.08886719 12.58349609 C-138.40621857 12.59562637 -138.40621857 12.59562637 -139.75018311 12.60800171 C-142.05800558 12.84229308 -142.05800558 12.84229308 -143.81866455 14.30337524 C-145.35785701 16.14385389 -145.35785701 16.14385389 -144.8125 19.5625 C-144.30784082 23.04248777 -144.30784082 23.04248777 -142 25 C-140.04244469 25.3119395 -140.04244469 25.3119395 -137.77587891 25.2746582 C-136.89960846 25.28419022 -136.02333801 25.29372223 -135.12051392 25.30354309 C-134.16550995 25.30263168 -133.21050598 25.30172028 -132.2265625 25.30078125 C-131.23361176 25.30506638 -130.24066101 25.3093515 -129.21762085 25.31376648 C-127.10081747 25.31952569 -124.98399429 25.31999842 -122.8671875 25.31567383 C-119.70015069 25.31257357 -116.53410442 25.33574039 -113.3671875 25.36132812 C-94.42680914 25.42188242 -77.34822666 23.96406423 -60 16 C-32.5557587 3.73259784 -32.5557587 3.73259784 -19.02856445 8.72802734 C-13.90306903 11.20963348 -9.12233409 14.33960682 -4.3125 17.375 C7.6211653 24.7804469 19.36750013 31.37525087 33.75 31.3125 C34.88115234 31.33666992 34.88115234 31.33666992 36.03515625 31.36132812 C40.24863161 31.38666246 40.24863161 31.38666246 43.9921875 29.66796875 C45.5834264 27.0344067 45.37470269 24.99762154 45 22 C43.96494831 20.20221052 43.96494831 20.20221052 42 19 C38.7825937 18.60238275 38.7825937 18.60238275 35.125 18.625 C19.61357827 17.93395223 8.00181246 9.65250657 -4.7109375 1.45458984 C-17.40158505 -6.60971029 -30.61938318 -6.43798899 -45 -3 Z " fill="#B3A0AB" transform="translate(225,286)"/>
<path d="M0 0 C19.8 0 39.6 0 60 0 C58.02 0.99 58.02 0.99 56 2 C46.22942038 7.13896483 40.09013799 13.22693506 35 23 C29.72 23 24.44 23 19 23 C18.360625 21.185 17.72125 19.37 17.0625 17.5 C14.04453242 10.22592429 9.52478995 4.97006304 2.21875 1.7890625 C1.4865625 1.52867188 0.754375 1.26828125 0 1 C0 0.67 0 0.34 0 0 Z " fill="#F9E3F0" transform="translate(203,0)"/>
<path d="M0 0 C19.8 0 39.6 0 60 0 C57.96405924 1.01797038 55.92791431 2.03557649 53.88671875 3.04296875 C44.61937512 7.86593799 39.69726948 13.74780254 35 23 C29.39 23 23.78 23 18 23 C17.34 20.36 16.68 17.72 16 15 C13.27535231 10.03810495 10.01787272 6.65652085 5 4 C5 3.34 5 2.68 5 2 C3.35 1.67 1.7 1.34 0 1 C0 0.67 0 0.34 0 0 Z " fill="#F9E3F0" transform="translate(128,0)"/>
<path d="M0 0 C0.33 0 0.66 0 1 0 C1 1.98 1 3.96 1 6 C1.99 6.33 2.98 6.66 4 7 C4 7.66 4 8.32 4 9 C76.6 8.67 149.2 8.34 224 8 C223.67 8.66 223.34 9.32 223 10 C222.01 10.33 221.02 10.66 220 11 C220.99 11.99 220.99 11.99 222 13 C193.7758046 13.04668072 165.55161497 13.08196956 137.32738876 13.10362434 C124.22296612 13.11394541 111.11856743 13.1280216 98.01416016 13.15087891 C86.5949417 13.17078737 75.17574058 13.18371039 63.75650525 13.18817699 C57.70779349 13.19078868 51.65913137 13.19694453 45.61043549 13.21146011 C39.92078643 13.22500383 34.23120761 13.22922915 28.54154396 13.22621536 C26.45012086 13.22676697 24.35869549 13.23076345 22.2672863 13.23841095 C19.41782949 13.24832192 16.56863989 13.24598294 13.71917725 13.24050903 C12.47015062 13.24924756 12.47015062 13.24924756 11.19589114 13.25816262 C3.99255817 13.2206108 3.99255817 13.2206108 1 11 C-1.43769218 7.34346173 -1.23944439 5.30999899 -1 1 C-0.67 0.67 -0.34 0.34 0 0 Z " fill="#B8A5B0" transform="translate(81,150)"/>
<path d="M0 0 C0.33 0 0.66 0 1 0 C1.32644414 4.16216275 1.40650982 6.36313462 -0.875 9.9375 C-3 12 -3 12 -5 12 C-5 12.66 -5 13.32 -5 14 C-77.6 14 -150.2 14 -225 14 C-225 13.67 -225 13.34 -225 13 C-153.06 13 -81.12 13 -7 13 C-7 12.34 -7 11.68 -7 11 C-78.28 11 -149.56 11 -223 11 C-223 10.67 -223 10.34 -223 10 C-221.88348368 9.99668985 -220.76696735 9.99337971 -219.6166172 9.98996925 C-192.48562066 9.90907931 -165.35468126 9.81679604 -138.22376442 9.71247292 C-125.1036153 9.66228914 -111.98347261 9.615847 -98.86328125 9.578125 C-87.43159587 9.54524825 -75.99995956 9.50544117 -64.56832826 9.45720994 C-58.51187933 9.4319019 -52.45546314 9.41013345 -46.39897537 9.39665604 C-40.70436861 9.38387462 -35.00987388 9.36186301 -29.3153286 9.33261681 C-27.21985646 9.32351023 -25.12436627 9.31784368 -23.02887535 9.31578636 C-20.17867737 9.31248547 -17.32880125 9.2970676 -14.47866821 9.2784729 C-13.22090307 9.281375 -13.22090307 9.281375 -11.93772852 9.28433573 C-7.49788317 9.42381373 -7.49788317 9.42381373 -4 7 C-3.35232207 4.42938689 -3.35232207 4.42938689 -3 2 C-2.67 3.32 -2.34 4.64 -2 6 C-1.34 6 -0.68 6 0 6 C0 4.02 0 2.04 0 0 Z " fill="#C3B4BD" transform="translate(308,221)"/>
<path d="M0 0 C28.35456887 -0.07002078 56.70912481 -0.12295417 85.06376266 -0.15543652 C98.22873572 -0.17091819 111.39365513 -0.19203258 124.55859375 -0.22631836 C136.03055012 -0.25618087 147.50246764 -0.27556553 158.97446179 -0.28226548 C165.0511463 -0.28618307 171.12771964 -0.295417 177.20436859 -0.31719017 C182.92030547 -0.33750555 188.63608505 -0.34384381 194.3520546 -0.33932304 C196.45315785 -0.34015046 198.55426619 -0.34614543 200.65533829 -0.35761642 C203.51804028 -0.372483 206.38014383 -0.3689749 209.24285889 -0.36076355 C210.07943425 -0.36950207 210.91600961 -0.3782406 211.77793574 -0.38724393 C215.13167344 -0.36113784 217.55601824 -0.24546814 220.52290726 1.39486217 C222 3 222 3 222.390625 5.04296875 C222.26041667 7.02864583 222.13020833 9.01432292 222 11 C221.34 11 220.68 11 220 11 C219.9175 10.05125 219.835 9.1025 219.75 8.125 C219.34740664 5.02057853 219.34740664 5.02057853 217.49570084 3.82209206 C213.80467413 2.60625573 210.16340451 2.71255223 206.31878662 2.7215271 C205.43332161 2.7157347 204.5478566 2.7099423 203.63555932 2.70397437 C200.66292733 2.68694354 197.69045031 2.6840952 194.71777344 2.68115234 C192.58912779 2.6718563 190.46048579 2.66168812 188.33184814 2.65071106 C182.5471533 2.62336052 176.76248287 2.60824666 170.97774029 2.59528303 C164.93453348 2.57967461 158.89137671 2.55287711 152.84820557 2.5272522 C141.40191693 2.48042385 129.95561892 2.44369936 118.5092833 2.41057932 C105.4791778 2.37238659 92.4491225 2.32296898 79.41905928 2.27259517 C52.61274337 2.16921498 25.80639523 2.07997438 -1 2 C-0.67 1.34 -0.34 0.68 0 0 Z " fill="#A4909B" transform="translate(86,216)"/>
<path d="M0 0 C2 2 2 2 2 5 C5.92108654 7.64359674 10.13912121 7.28907596 14.68121338 7.2784729 C15.56667839 7.2842653 16.4521434 7.2900577 17.36444068 7.29602563 C20.33707267 7.31305646 23.30954969 7.3159048 26.28222656 7.31884766 C28.41087221 7.3281437 30.53951421 7.33831188 32.66815186 7.34928894 C38.4528467 7.37663948 44.23751713 7.39175334 50.02225971 7.40471697 C56.06546652 7.42032539 62.10862329 7.44712289 68.15179443 7.4727478 C79.59808307 7.51957615 91.04438108 7.55630064 102.4907167 7.58942068 C115.5208222 7.62761341 128.5508775 7.67703102 141.58094072 7.72740483 C168.38725663 7.83078502 195.19360477 7.92002562 222 8 C222 8.66 222 9.32 222 10 C193.64544567 10.093361 165.29091431 10.16393883 136.93623734 10.20724869 C123.77124144 10.22789096 110.60634093 10.25604345 97.44140625 10.30175781 C85.9694496 10.34157449 74.49756203 10.36742069 63.02553821 10.37635398 C56.94881566 10.38157746 50.87229074 10.39388928 44.79563141 10.42292023 C39.07966223 10.45000755 33.36397267 10.45845848 27.6479454 10.45243073 C25.5468354 10.45353395 23.44571634 10.46152736 21.34466171 10.4768219 C18.481808 10.49664505 15.62001807 10.49196715 12.75714111 10.48101807 C11.92056575 10.49266943 11.08399039 10.5043208 10.22206426 10.51632524 C6.59556101 10.47868611 4.45411068 10.33870763 1.50345993 8.13790512 C-0.20349695 5.71062936 -0.76105823 3.94694854 -1 1 C-0.67 0.67 -0.34 0.34 0 0 Z " fill="#A4909B" transform="translate(79,224)"/>
<path d="M0 0 C0.66 0 1.32 0 2 0 C1.625 2.4375 1.625 2.4375 1 5 C-2.26149675 6.63074838 -5.85713598 6.13276126 -9.44070435 6.12025452 C-10.76633859 6.12153615 -10.76633859 6.12153615 -12.11875331 6.12284368 C-15.09758104 6.12449855 -18.07635319 6.11897698 -21.05517578 6.11352539 C-23.18352253 6.11324349 -25.31186937 6.1134013 -27.44021606 6.1139679 C-33.23330977 6.11425578 -39.02638292 6.10836057 -44.81947184 6.10139394 C-50.8679993 6.09515883 -56.91652719 6.09455648 -62.96505737 6.09336853 C-74.42560235 6.09025568 -85.88613783 6.08204291 -97.34667861 6.07201904 C-110.39121557 6.06085647 -123.43575297 6.05534709 -136.48029351 6.05032361 C-163.32020095 6.03986026 -190.16009994 6.02226171 -217 6 C-217 5.67 -217 5.34 -217 5 C-215.91017413 4.99576806 -214.82034826 4.99153612 -213.69749737 4.98717594 C-187.208751 4.88409132 -160.72003244 4.77535701 -134.23133373 4.66066074 C-121.4217286 4.60532656 -108.61212068 4.55184423 -95.80249023 4.50268555 C-84.64072674 4.45984612 -73.47898378 4.41356872 -62.31725198 4.36312145 C-56.40441647 4.33651859 -50.49158504 4.31166543 -44.57872581 4.29092598 C-39.01793559 4.27136718 -33.45718443 4.24722562 -27.89642906 4.21950912 C-25.85136117 4.21013469 -23.80628469 4.20246082 -21.76120377 4.19658089 C-18.9771272 4.18832641 -16.19314564 4.17405152 -13.40910339 4.15821838 C-12.59296088 4.15724028 -11.77681836 4.15626217 -10.93594426 4.15525442 C-7.69873326 4.13144912 -5.09319687 4.03106562 -2 3 C-1.34 2.01 -0.68 1.02 0 0 Z " fill="#A4909B" transform="translate(306,156)"/>
<path d="M0 0 C2.73156959 -0.16262928 5.45342122 -0.28110686 8.1875 -0.375 C8.95642578 -0.42527344 9.72535156 -0.47554688 10.51757812 -0.52734375 C16.09837303 -0.67105521 16.09837303 -0.67105521 18.66210938 1.23706055 C21.18618185 4.09538519 21.99029453 5.72339401 22.125 9.5625 C20.75076224 13.76155982 19.51017102 15.31387691 16 18 C12.86854859 18.59644956 9.86052477 18.47528343 6.6875 18.3125 C5.85154297 18.28994141 5.01558594 18.26738281 4.15429688 18.24414062 C2.10208851 18.1855061 0.05080798 18.09583215 -2 18 C-2 17.34 -2 16.68 -2 16 C-1.04738281 15.96261719 -0.09476563 15.92523438 0.88671875 15.88671875 C2.76810547 15.78810547 2.76810547 15.78810547 4.6875 15.6875 C6.54955078 15.60048828 6.54955078 15.60048828 8.44921875 15.51171875 C12.10168809 14.98534528 14.12674961 14.28775786 17 12 C17.58345476 8.95746492 17.58345476 8.95746492 17 6 C14.15385976 3.15385976 11.19630858 3.54420924 7.375 3.375 C6.66859375 3.33632813 5.9621875 3.29765625 5.234375 3.2578125 C3.49001476 3.16352276 1.74504309 3.08067109 0 3 C0 2.01 0 1.02 0 0 Z " fill="#AD99A4" transform="translate(252,302)"/>
<path d="M0 0 C0.33 0 0.66 0 1 0 C1 5.61 1 11.22 1 17 C-3.95 17 -8.9 17 -14 17 C-12.35 15.35 -10.7 13.7 -9 12 C-7.55664182 10.29304981 -6.13866588 8.56423311 -4.75 6.8125 C-4.06421875 5.95269531 -3.3784375 5.09289062 -2.671875 4.20703125 C-0.98133846 2.11567926 -0.98133846 2.11567926 0 0 Z " fill="#FBE2EE" transform="translate(391,399)"/>
<path d="M0 0 C5.50366792 -0.32374517 9.43672206 -0.53286034 14 3 C13.67 4.98 13.34 6.96 13 9 C7.06 9 1.12 9 -5 9 C-4 6 -4 6 -1.25 4.375 C1.56668945 3.18332369 3.99043417 2.44258321 7 2 C4.69 1.67 2.38 1.34 0 1 C0 0.67 0 0.34 0 0 Z " fill="#C0ABB7" transform="translate(265,16)"/>
<path d="M0 0 C0 0.99 0 1.98 0 3 C-2.65838069 3.97888037 -5.31916249 4.94999636 -7.984375 5.91015625 C-9.81235605 6.57078671 -11.63653755 7.24224916 -13.453125 7.93359375 C-18.52691123 9.78747718 -22.59752777 10.2946803 -28 10 C-28 9.67 -28 9.34 -28 9 C-26.02 9 -24.04 9 -22 9 C-22 8.34 -22 7.68 -22 7 C-25.3 7 -28.6 7 -32 7 C-32 6.67 -32 6.34 -32 6 C-30.69546875 5.81824219 -29.3909375 5.63648438 -28.046875 5.44921875 C-18.54411868 4.09363038 -9.24242319 2.64874323 0 0 Z " fill="#AB98A3" transform="translate(162,304)"/>
<path d="M0 0 C0.91007813 0.00902344 1.82015625 0.01804687 2.7578125 0.02734375 C3.80582031 0.04474609 3.80582031 0.04474609 4.875 0.0625 C4.875 0.3925 4.875 0.7225 4.875 1.0625 C2.895 1.3925 0.915 1.7225 -1.125 2.0625 C0.009375 2.495625 1.14375 2.92875 2.3125 3.375 C3.488125 3.931875 4.66375 4.48875 5.875 5.0625 C6.205 6.0525 6.535 7.0425 6.875 8.0625 C1.925 8.0625 -3.025 8.0625 -8.125 8.0625 C-8.455 7.0725 -8.785 6.0825 -9.125 5.0625 C-10.115 6.0525 -11.105 7.0425 -12.125 8.0625 C-12.785 7.7325 -13.445 7.4025 -14.125 7.0625 C-13.00220538 6.08080524 -11.87668527 5.10222702 -10.75 4.125 C-9.81027344 3.30708984 -9.81027344 3.30708984 -8.8515625 2.47265625 C-5.81235033 -0.00959622 -3.85402349 -0.04941056 0 0 Z " fill="#B39FAB" transform="translate(194.125,15.9375)"/>
<path d="M0 0 C0 0.66 0 1.32 0 2 C-3.5553787 3.68217238 -7.12035394 5.34294533 -10.6875 7 C-11.69490234 7.47695313 -12.70230469 7.95390625 -13.74023438 8.4453125 C-14.71669922 8.89648438 -15.69316406 9.34765625 -16.69921875 9.8125 C-17.59471436 10.23144531 -18.49020996 10.65039062 -19.4128418 11.08203125 C-22.12150605 12.04311246 -24.14977818 12.17968301 -27 12 C-26 9 -26 9 -24.3293457 7.94091797 C-23.61866943 7.62783691 -22.90799316 7.31475586 -22.17578125 6.9921875 C-21.39396484 6.64542969 -20.61214844 6.29867188 -19.80664062 5.94140625 C-18.98357422 5.58949219 -18.16050781 5.23757813 -17.3125 4.875 C-16.50876953 4.51535156 -15.70503906 4.15570313 -14.87695312 3.78515625 C-9.96829593 1.6418832 -5.43601061 0 0 0 Z " fill="#AF9EA8" transform="translate(172,283)"/>
<path d="M0 0 C0.495 1.98 0.495 1.98 1 4 C0.01 4 -0.98 4 -2 4 C-2 3.34 -2 2.68 -2 2 C-2.98389709 2.20935684 -2.98389709 2.20935684 -3.9876709 2.42294312 C-11.01110997 3.82139014 -17.7558365 4.33367747 -24.90625 4.4140625 C-26.5369342 4.44311172 -26.5369342 4.44311172 -28.20056152 4.4727478 C-31.63363086 4.53193759 -35.06673575 4.57865673 -38.5 4.625 C-40.83334694 4.66324096 -43.16668069 4.70229611 -45.5 4.7421875 C-60.94980754 5 -60.94980754 5 -66 5 C-63.51787141 2.51787141 -62.76422946 2.74212286 -59.34179688 2.71289062 C-58.37318726 2.69947632 -57.40457764 2.68606201 -56.40661621 2.67224121 C-54.82862244 2.66432556 -54.82862244 2.66432556 -53.21875 2.65625 C-52.13549438 2.6416272 -51.05223877 2.62700439 -49.93615723 2.61193848 C-46.4574761 2.56531272 -42.97885142 2.53122416 -39.5 2.5 C-34.94771234 2.45863871 -30.39581182 2.40476689 -25.84375 2.34375 C-24.807948 2.3384729 -23.772146 2.3331958 -22.70495605 2.32775879 C-16.99692489 2.2507139 -11.72388536 1.73563424 -6.16174316 0.42541504 C-4 0 -4 0 0 0 Z " fill="#C6B9C0" transform="translate(146,292)"/>
<path d="M0 0 C1.09731445 0.00676758 1.09731445 0.00676758 2.21679688 0.01367188 C3.99873419 0.02531852 5.78062863 0.04324809 7.5625 0.0625 C7.8925 0.7225 8.2225 1.3825 8.5625 2.0625 C7.43972656 2.11148437 6.31695312 2.16046875 5.16015625 2.2109375 C-4.37274915 2.57938227 -4.37274915 2.57938227 -13.75 4.1875 C-17.22414771 5.01187403 -18.23730831 5.0656506 -21.4375 4.0625 C-14.47035168 0.15409972 -7.78448549 -0.09258766 0 0 Z " fill="#A5919C" transform="translate(196.4375,277.9375)"/>
<path d="M0 0 C2.5215021 -0.08172936 5.04029917 -0.14083373 7.5625 -0.1875 C8.26697266 -0.21263672 8.97144531 -0.23777344 9.69726562 -0.26367188 C14.88003315 -0.33532304 18.36264182 0.67827402 23 3 C22.01 3.495 22.01 3.495 21 4 C21.33 4.99 21.66 5.98 22 7 C21.17242187 6.68289063 20.34484375 6.36578125 19.4921875 6.0390625 C15.68152181 4.90524027 12.06773688 4.55838311 8.125 4.375 C7.43664062 4.33632813 6.74828125 4.29765625 6.0390625 4.2578125 C4.35976754 4.16451834 2.67992233 4.08121762 1 4 C1 3.67 1 3.34 1 3 C5.62 3 10.24 3 15 3 C15 2.34 15 1.68 15 1 C10.05 1 5.1 1 0 1 C0 0.67 0 0.34 0 0 Z " fill="#BCAAB4" transform="translate(188,293)"/>
<path d="M0 0 C0 0.66 0 1.32 0 2 C-0.92941406 2.04898437 -1.85882813 2.09796875 -2.81640625 2.1484375 C-10.57672179 2.48535876 -10.57672179 2.48535876 -18.125 4.125 C-21.13781782 5.04194456 -22.10406964 4.88245088 -25 4 C-17.16312937 -1.33574171 -9.10444175 -0.37245444 0 0 Z " fill="#A6929D" transform="translate(203,294)"/>
<path d="M0 0 C3.38018638 1.12672879 4.5572011 2.48086363 7 5 C10.44450737 7.29633824 12.93812283 7.54016485 17 8 C17 8.66 17 9.32 17 10 C10.81606716 10.20962484 6.6701471 10.16498414 1.6875 6.125 C0 4 0 4 0 0 Z " fill="#AB97A2" transform="translate(255,58)"/>
<path d="M0 0 C0.33 0 0.66 0 1 0 C1 6.6 1 13.2 1 20 C0.34 20 -0.32 20 -1 20 C-2.16348868 16.50953395 -2.16834776 13.67722983 -2.1875 10 C-2.20167969 8.7625 -2.21585938 7.525 -2.23046875 6.25 C-2 3 -2 3 0 0 Z " fill="#AA97A2" transform="translate(235,35)"/>
<path d="M0 0 C0.91007812 0.00902344 1.82015625 0.01804688 2.7578125 0.02734375 C3.80582031 0.04474609 3.80582031 0.04474609 4.875 0.0625 C3.43693978 2.93862044 1.69158786 2.99052918 -1.3125 4 C-5.44640528 5.43717801 -9.27908927 6.98362933 -13.125 9.0625 C-10.39268672 2.68710234 -6.82438796 -0.08749215 0 0 Z " fill="#AE9AA5" transform="translate(264.125,0.9375)"/>
<path d="M0 0 C0.78246094 -0.01417969 1.56492187 -0.02835938 2.37109375 -0.04296875 C4.5625 0.1875 4.5625 0.1875 7.5625 2.1875 C7.5625 2.8475 7.5625 3.5075 7.5625 4.1875 C2.6125 4.1875 -2.3375 4.1875 -7.4375 4.1875 C-7.1075 3.1975 -6.7775 2.2075 -6.4375 1.1875 C-4.0978331 0.01766655 -2.60358473 0.0213759 0 0 Z " fill="#F1DBE8" transform="translate(118.4375,19.8125)"/>
<path d="M0 0 C0.99 0.66 1.98 1.32 3 2 C3 2.66 3 3.32 3 4 C-1.95 4 -6.9 4 -12 4 C-12 3.34 -12 2.68 -12 2 C-8.07178453 -0.61881031 -4.56556861 -0.28987737 0 0 Z " fill="#F3DDEA" transform="translate(273,20)"/>
<path d="M0 0 C2.0625 0.25 2.0625 0.25 4 1 C5.60725635 4.21451269 5.05748185 7.43612536 5 11 C4.01 11.495 4.01 11.495 3 12 C3 11.34 3 10.68 3 10 C2.34 10 1.68 10 1 10 C1 7.69 1 5.38 1 3 C0.01 2.67 -0.98 2.34 -2 2 C-1.34 1.34 -0.68 0.68 0 0 Z " fill="#B3A0AB" transform="translate(305,146)"/>
<path d="M0 0 C0 0.33 0 0.66 0 1 C-1.98 1.33 -3.96 1.66 -6 2 C-4.35 2.33 -2.7 2.66 -1 3 C-1 3.33 -1 3.66 -1 4 C-3.31 4 -5.62 4 -8 4 C-8 4.66 -8 5.32 -8 6 C-11.3 6 -14.6 6 -18 6 C-18.33 5.34 -18.66 4.68 -19 4 C-15.7 4.33 -12.4 4.66 -9 5 C-9 4.34 -9 3.68 -9 3 C-11.31 3 -13.62 3 -16 3 C-16.33 2.34 -16.66 1.68 -17 1 C-15.88625 1.020625 -14.7725 1.04125 -13.625 1.0625 C-8.92451288 0.98145712 -4.90728842 -0.07914981 0 0 Z " fill="#C3B1BC" transform="translate(281,63)"/>
<path d="M0 0 C2.0625 0.4375 2.0625 0.4375 4 1 C3.505 1.495 3.01 1.99 2.5 2.5 C0.33021905 6.11630158 0.79111581 8.82231616 1 13 C0.34 13 -0.32 13 -1 13 C-2.20628008 10.66785852 -3.1654738 8.50357861 -4 6 C-2.84338843 3.79192337 -1.77322566 1.77322566 0 0 Z " fill="#B19EA9" transform="translate(82,216)"/>
<path d="M0 0 C-1.98 0.66 -3.96 1.32 -6 2 C-4.68 2.66 -3.36 3.32 -2 4 C-5.9813783 5.3271261 -9.85045227 5.06915913 -14 5 C-14 4.67 -14 4.34 -14 4 C-12.02 4 -10.04 4 -8 4 C-8 3.34 -8 2.68 -8 2 C-11.3 2 -14.6 2 -18 2 C-18 1.67 -18 1.34 -18 1 C-15.75152519 0.63627613 -13.50113812 0.28435904 -11.25 -0.0625 C-9.99703125 -0.25972656 -8.7440625 -0.45695312 -7.453125 -0.66015625 C-4.49983411 -0.95080818 -2.7397586 -0.98935727 0 0 Z " fill="#C5B3BE" transform="translate(148,309)"/>
<path d="M0 0 C2.3125 -0.3984375 2.3125 -0.3984375 5 -0.375 C6.3303125 -0.38660156 6.3303125 -0.38660156 7.6875 -0.3984375 C8.8321875 -0.20121094 8.8321875 -0.20121094 10 0 C10.66 0.99 11.32 1.98 12 3 C7.38 3 2.76 3 -2 3 C-1.34 2.01 -0.68 1.02 0 0 Z " fill="#EAD4E1" transform="translate(189,20)"/>
<path d="M0 0 C1.03125 0.309375 2.0625 0.61875 3.125 0.9375 C9.30186863 2.50959111 15.65944709 2.6615997 22 3 C22 3.33 22 3.66 22 4 C17.05 4 12.1 4 7 4 C7 4.66 7 5.32 7 6 C6.01 6 5.02 6 4 6 C4 4.68 4 3.36 4 2 C2.68 1.67 1.36 1.34 0 1 C0 0.67 0 0.34 0 0 Z " fill="#C0B2BA" transform="translate(245,298)"/>
<path d="M0 0 C0.33 1.32 0.66 2.64 1 4 C0.01 4 -0.98 4 -2 4 C-2 3.34 -2 2.68 -2 2 C-2.67804688 2.144375 -3.35609375 2.28875 -4.0546875 2.4375 C-10.46292384 3.715597 -16.47196016 4.25489093 -23 4 C-23 3.67 -23 3.34 -23 3 C-19.91747911 2.49490361 -16.83386475 1.99682001 -13.75 1.5 C-12.87730469 1.35691406 -12.00460938 1.21382813 -11.10546875 1.06640625 C-10.26113281 0.93105469 -9.41679687 0.79570312 -8.546875 0.65625 C-7.77182617 0.53056641 -6.99677734 0.40488281 -6.19824219 0.27539062 C-4 0 -4 0 0 0 Z " fill="#BDADB6" transform="translate(146,292)"/>
<path d="M0 0 C-0.74250597 4.08378283 -1.82923301 8.01939223 -3 12 C-3.33 12 -3.66 12 -4 12 C-4.33 10.35 -4.66 8.7 -5 7 C-5.66 8.32 -6.32 9.64 -7 11 C-6.51098901 4.64285714 -6.51098901 4.64285714 -4.0625 1.5625 C-2 0 -2 0 0 0 Z " fill="#B5A3AD" transform="translate(86,144)"/>
<path d="M0 0 C0.99 0.66 1.98 1.32 3 2 C2.34 2 1.68 2 1 2 C1 2.66 1 3.32 1 4 C-1.31 4 -3.62 4 -6 4 C-6 3.34 -6 2.68 -6 2 C-7.32 1.67 -8.64 1.34 -10 1 C-6.87293041 -0.5635348 -3.42017557 -0.39958487 0 0 Z " fill="#B6A1AD" transform="translate(122,16)"/>
<path d="M0 0 C0.33 0.66 0.66 1.32 1 2 C0.67 2.99 0.34 3.98 0 5 C-0.14403348 6.33363703 -0.24590423 7.67218046 -0.31640625 9.01171875 C-0.35830078 9.76904297 -0.40019531 10.52636719 -0.44335938 11.30664062 C-0.48267578 12.09232422 -0.52199219 12.87800781 -0.5625 13.6875 C-0.60568359 14.48478516 -0.64886719 15.28207031 -0.69335938 16.10351562 C-0.79927368 18.06881447 -0.90012551 20.03438496 -1 22 C-1.33 22 -1.66 22 -2 22 C-2.06058594 20.86820313 -2.12117187 19.73640625 -2.18359375 18.5703125 C-2.26799917 17.08852855 -2.35264717 15.6067584 -2.4375 14.125 C-2.49647461 13.00544922 -2.49647461 13.00544922 -2.55664062 11.86328125 C-2.71573624 7.80013136 -2.71573624 7.80013136 -4 4 C-2.68 2.68 -1.36 1.36 0 0 Z " fill="#BCA7B4" transform="translate(238,30)"/>
<path d="M0 0 C0.33 0.66 0.66 1.32 1 2 C1.66 2 2.32 2 3 2 C2.34 4.97 1.68 7.94 1 11 C0.34 10.01 -0.32 9.02 -1 8 C-1.66 8.99 -2.32 9.98 -3 11 C-2.44894091 7.0507432 -1.61064629 3.65079826 0 0 Z " fill="#B9A7B1" transform="translate(177,27)"/>
<path d="M0 0 C0.33 0.99 0.66 1.98 1 3 C-2.88309282 6.64775386 -5.71201818 7.58525633 -11 8 C-8.21727004 4.72620005 -4.70883468 3.06046371 -1 1 C-0.67 0.67 -0.34 0.34 0 0 Z " fill="#A7949F" transform="translate(133,76)"/>
<path d="M0 0 C0.33 0.66 0.66 1.32 1 2 C0.67 2.66 0.34 3.32 0 4 C-0.23029956 6.37123246 -0.41119942 8.74741943 -0.5625 11.125 C-0.64628906 12.40632813 -0.73007813 13.68765625 -0.81640625 15.0078125 C-0.87699219 15.99523438 -0.93757812 16.98265625 -1 18 C-1.33 18 -1.66 18 -2 18 C-2.33 13.71 -2.66 9.42 -3 5 C-3.99 5.495 -3.99 5.495 -5 6 C-4.67 4.35 -4.34 2.7 -4 1 C-3.67 1.66 -3.34 2.32 -3 3 C-2.34 3 -1.68 3 -1 3 C-0.67 2.01 -0.34 1.02 0 0 Z " fill="#CBBCC5" transform="translate(254,31)"/>
<path d="M0 0 C3.3 0 6.6 0 10 0 C9.67 0.99 9.34 1.98 9 3 C6.03 3 3.06 3 0 3 C0 2.01 0 1.02 0 0 Z " fill="#AB98A2" transform="translate(188,65)"/>
<path d="M0 0 C0 0.33 0 0.66 0 1 C-1.65 1.33 -3.3 1.66 -5 2 C-3.68 2.66 -2.36 3.32 -1 4 C-2.98 4 -4.96 4 -7 4 C-7 4.66 -7 5.32 -7 6 C-9.64 6 -12.28 6 -15 6 C-15 5.67 -15 5.34 -15 5 C-12.69 5 -10.38 5 -8 5 C-8.33 3.68 -8.66 2.36 -9 1 C-6.04335481 -0.4783226 -3.25770263 -0.06032783 0 0 Z " fill="#C1AEB9" transform="translate(205,63)"/>
<path d="M0 0 C0.33 0 0.66 0 1 0 C1.06058594 0.89203125 1.12117188 1.7840625 1.18359375 2.703125 C1.26738281 3.87359375 1.35117188 5.0440625 1.4375 6.25 C1.55931641 7.99023438 1.55931641 7.99023438 1.68359375 9.765625 C1.93247787 12.30977376 2.28114942 14.55953248 3 17 C2.34 17 1.68 17 1 17 C0.34 17.66 -0.32 18.32 -1 19 C-1.33 17.35 -1.66 15.7 -2 14 C-1.67 14 -1.34 14 -1 14 C-0.67 9.38 -0.34 4.76 0 0 Z " fill="#BCACB5" transform="translate(101,38)"/>
<path d="M0 0 C1.03115279 3.26913624 0.9638984 5.86041348 0.5625 9.25 C0.46066406 10.14203125 0.35882813 11.0340625 0.25390625 11.953125 C0.12822266 12.96632813 0.12822266 12.96632813 0 14 C-2 12 -2 12 -2.265625 9.6875 C-2.26046875 8.800625 -2.2553125 7.91375 -2.25 7 C-2.25515625 6.113125 -2.2603125 5.22625 -2.265625 4.3125 C-2 2 -2 2 0 0 Z " fill="#A7939E" transform="translate(251,35)"/>
<path d="M0 0 C0 0.66 0 1.32 0 2 C-2.40545638 3.20272819 -3.94996953 3.10071472 -6.625 3.0625 C-7.85089844 3.04896484 -7.85089844 3.04896484 -9.1015625 3.03515625 C-10.04128906 3.01775391 -10.04128906 3.01775391 -11 3 C-11.33 2.34 -11.66 1.68 -12 1 C-7.915021 0.45533613 -4.1274515 0 0 0 Z " fill="#A5919C" transform="translate(200,82)"/>
<path d="M0 0 C6.93 0.495 6.93 0.495 14 1 C14 1.33 14 1.66 14 2 C12.9275 2.144375 11.855 2.28875 10.75 2.4375 C7.21662969 2.87348673 7.21662969 2.87348673 4.75 3.6875 C3 4 3 4 0 2 C0 1.34 0 0.68 0 0 Z " fill="#AD9AA5" transform="translate(182,81)"/>
<path d="M0 0 C0.90105469 0.02707031 1.80210937 0.05414063 2.73046875 0.08203125 C3.76107422 0.13423828 3.76107422 0.13423828 4.8125 0.1875 C4.8125 0.5175 4.8125 0.8475 4.8125 1.1875 C2.8325 1.5175 0.8525 1.8475 -1.1875 2.1875 C0.1325 2.8475 1.4525 3.5075 2.8125 4.1875 C0.8325 4.1875 -1.1475 4.1875 -3.1875 4.1875 C-3.1875 3.5275 -3.1875 2.8675 -3.1875 2.1875 C-4.8375 2.5175 -6.4875 2.8475 -8.1875 3.1875 C-5.67753317 0.01043235 -3.96125134 -0.15433447 0 0 Z " fill="#C1ACB9" transform="translate(194.1875,15.8125)"/>
<path d="M0 0 C0.66 0.33 1.32 0.66 2 1 C0.02 1.99 -1.96 2.98 -4 4 C-3.67 4.66 -3.34 5.32 -3 6 C-3.99 6 -4.98 6 -6 6 C-6 5.34 -6 4.68 -6 4 C-8.31 4 -10.62 4 -13 4 C-13 3.67 -13 3.34 -13 3 C-12.31292969 2.86722656 -11.62585938 2.73445313 -10.91796875 2.59765625 C-9.56638672 2.33275391 -9.56638672 2.33275391 -8.1875 2.0625 C-6.84751953 1.80146484 -6.84751953 1.80146484 -5.48046875 1.53515625 C-2.88602829 1.02258847 -2.88602829 1.02258847 0 0 Z " fill="#B9A5B2" transform="translate(127,79)"/>
<path d="M0 0 C0 0.66 0 1.32 0 2 C-6.625 5.125 -6.625 5.125 -10 4 C-6.74659338 1.32755885 -4.23938937 0 0 0 Z " fill="#A6929D" transform="translate(172,283)"/>
<path d="M0 0 C2.38564077 0.57584432 4.66682784 1.22227595 7 2 C7 2.99 7 3.98 7 5 C4.03 4.505 4.03 4.505 1 4 C0.67 2.68 0.34 1.36 0 0 Z " fill="#AB97A2" transform="translate(242,298)"/>
<path d="M0 0 C0 0.33 0 0.66 0 1 C-1.65 1.33 -3.3 1.66 -5 2 C-3.68 2.66 -2.36 3.32 -1 4 C-3.31 4.33 -5.62 4.66 -8 5 C-8.33 3.68 -8.66 2.36 -9 1 C-6.04335481 -0.4783226 -3.25770263 -0.06032783 0 0 Z " fill="#BBA9B4" transform="translate(130,63)"/>
<path d="M0 0 C-3.465 1.485 -3.465 1.485 -7 3 C-7 3.66 -7 4.32 -7 5 C-7.66 5 -8.32 5 -9 5 C-9 4.34 -9 3.68 -9 3 C-9.66 2.67 -10.32 2.34 -11 2 C-3.57142857 -1.57142857 -3.57142857 -1.57142857 0 0 Z " fill="#BDA8B5" transform="translate(186,295)"/>
<path d="M0 0 C-1.95216435 1.95216435 -3.53199953 2.84826645 -6 4 C-6 3.34 -6 2.68 -6 2 C-6.66 1.67 -7.32 1.34 -8 1 C-4.93251126 -0.86240388 -3.40254489 -1.2151946 0 0 Z " fill="#B29EA9" transform="translate(188,2)"/>
<path d="M0 0 C-0.33 0.66 -0.66 1.32 -1 2 C-3.64860427 2.59355614 -6.29197322 2.74209269 -9 3 C-6.38997624 -0.48003168 -4.1689578 -0.27793052 0 0 Z " fill="#A5919C" transform="translate(269,1)"/>
</svg>
